<svg xmlns="http://www.w3.org/2000/svg" xmlns:xlink="http://www.w3.org/1999/xlink" width="1760" height="3952"><g transform="translate(0 0)"><path d="M165 3547.5c-2.76 0-5-2.23-5-5V945c0-2.76 2.24-5 5-5h32c2.76 0 5 2.24 5 5v2597.5c0 2.77-2.24 5-5 5z" fill="#fff"/><path d="M181 3547.5V940h21v2607.5z" fill="#fff"/><path d="M1420 3542.5c0 2.77-2.24 5-5 5H165c-2.76 0-5-2.23-5-5V945c0-2.76 2.24-5 5-5h1250c2.76 0 5 2.24 5 5zM202 3547.5V940m-42 2067.5h1260m-1260-300h1260M160 2506.72h1260M160 2208.2h1260M160 1999.68h1260M160 1509.72h1260" stroke="#fcc438" stroke-width="2" fill="none"/><use xlink:href="#a" transform="matrix(6.123233995736766e-17,-1,1,6.123233995736766e-17,160,1509.7197118533645) translate(214.90740740740742 33.111111111111114)"/><use xlink:href="#b" transform="matrix(6.123233995736766e-17,-1,1,6.123233995736766e-17,160,1999.6751800917987) translate(190.1851851851852 33.111111111111114)"/><use xlink:href="#c" transform="matrix(6.123233995736766e-17,-1,1,6.123233995736766e-17,160,2208.201702685118) translate(63.20370370370371 33.111111111111114)"/><use xlink:href="#d" transform="matrix(6.123233995736766e-17,-1,1,6.123233995736766e-17,160,2506.7229862477243) translate(74.53086419753087 33.111111111111114)"/><use xlink:href="#e" transform="matrix(6.123233995736766e-17,-1,1,6.123233995736766e-17,160,2707.503601833905) translate(63.586419753086425 33.111111111111114)"/><use xlink:href="#f" transform="matrix(6.123233995736766e-17,-1,1,6.123233995736766e-17,160,3007.5036018339047) translate(100.1 24.6)"/><use xlink:href="#g" transform="matrix(6.123233995736766e-17,-1,1,6.123233995736766e-17,160,3547.503601833905) translate(227.125 24.6)"/><path d="M953 1040c0-16.57 13.43-30 30-30s30 13.43 30 30-13.43 30-30 30-30-13.43-30-30z" stroke="#666" stroke-width="2" fill="#7ab648"/><use xlink:href="#h" transform="matrix(-1,1.2246467991473532e-16,-1.2246467991473532e-16,-1,1008.0000000000001,1065) translate(17.592592592592666 29.4444444444444)"/><path d="M978.92 1140.44c2.25-1.6 5.9-1.6 8.16 0l62.5 44.22c2.26 1.6 2.26 4.18 0 5.78l-62.5 44.22c-2.25 1.6-5.9 1.6-8.16 0l-62.5-44.22c-2.26-1.6-2.26-4.18 0-5.78z" stroke="#666" stroke-width="2" fill="#fff"/><use xlink:href="#i" transform="matrix(1,0,0,1,917.3333333333333,1142.5494433527924) translate(16.185185185185674 36.1111111111112)"/><use xlink:href="#j" transform="matrix(1,0,0,1,917.3333333333333,1142.5494433527924) translate(26.000000000000398 62.7777777777776)"/><path d="M1193.33 1160.55c0-2.76 2.24-5 5-5H1335c2.76 0 5 2.24 5 5V1195c0 2.76-2.24 5-5 5h-136.67c-2.76 0-5-2.24-5-5z" stroke="#666" stroke-width="2" fill="#fff"/><use xlink:href="#k" transform="matrix(1,0,0,1,1198.3333333333333,1160.5494433527933) translate(8.12962962963023 21.9444444444444)"/><use xlink:href="#l" transform="matrix(1,0,0,1,1198.3333333333333,1160.5494433527933) translate(68.5 21.9444444444444)"/><path d="M1120 1380H987.67c-2.76 0-5 2.24-5 5v110.3" stroke="#999" stroke-width="2" fill="none"/><path d="M982.67 1495.3l-4.64-14.27h9.27z" fill="#999"/><path d="M983.3 1496.6l-1.2-.05H982l-5.37-16.52h12.03zm-3.9-14.57l3.27 10.03 3.26-10.03z" fill="#999"/><path d="M1268.9 1200.7v74.3c0 2.76-2.23 5-5 5H987.68c-2.76 0-5 2.24-5 5v210.3" stroke="#999" stroke-width="2" fill="none"/><path d="M1269.9 1200.7h-2v-.7h2zM982.67 1495.3l-4.64-14.27h9.27z" fill="#999"/><path d="M983.3 1496.6l-1.2-.05H982l-5.37-16.52h12.03zm-3.9-14.57l3.27 10.03 3.26-10.03z" fill="#999"/><path d="M580 1160.55c0-2.76 2.24-5 5-5h168c2.76 0 5 2.24 5 5v53.33c0 2.76-2.24 5-5 5H585c-2.76 0-5-2.24-5-5z" stroke="#666" stroke-width="2" fill="#fff"/><use xlink:href="#m" transform="matrix(1,0,0,1,585,1160.5494433527933) translate(8.753086419753828 31.4444444444444)"/><use xlink:href="#n" transform="matrix(1,0,0,1,585,1160.5494433527933) translate(64.30864197530883 31.4444444444444)"/><path d="M983 1070v33.98c0 .1.07.16.17.16s.16.08.16.17v34" stroke="#999" stroke-width="2" fill="none"/><path d="M983 1070h-1v-.08zm1 0h-1l1-.04zM983.33 1138.3L978.7 1124h9.27z" fill="#999"/><path d="M984.03 1139.38l-1.12-.14-.3.05-5.28-16.28h12.03zm-3.96-14.36l3.26 10.03 3.26-10.03z" fill="#999"/><path d="M912.33 1187.55h-77c-.1 0-.16-.08-.16-.17 0-.1-.08-.16-.17-.16h-77" stroke="#999" stroke-width="2" fill="none"/><path d="M914.88 1188.5l.04.05h-2.6v-2h2.65zM772.27 1191.85l-14.27-4.63 14.27-4.64z" fill="#999"/><path d="M773.27 1193.23l-15.27-4.96v-2.1l15.27-4.97zm-12.03-6l10.03 3.25v-6.52z" fill="#999"/><path fill="#fff" d="M796.34 1174.05H874v26.67h-77.66z"/><use xlink:href="#o" transform="matrix(1,0,0,1,796.3395061728397,1174.0494433527929) translate(0.005000000000002558 17.7777777777776)"/><path d="M1052.1 1187.22h65.9c2.6 0 4.7-2.12 4.7-4.72 0-2.6 2.13-4.73 4.73-4.73h65.9" stroke="#999" stroke-width="2" fill="none"/><path d="M1052.1 1188.22h-1.05l.07-1.63-.3-.38h1.27zM1193.33 1177.77l-14.26 4.64v-9.26z" fill="#999"/><path d="M1193.33 1176.72v2.1l-15.26 4.97v-12.04zm-13.26 4.3l10.03-3.25-10.03-3.25z" fill="#999"/><path fill="#fff" d="M1086.94 1169.16h71.55v26.67h-71.56z"/><use xlink:href="#p" transform="matrix(1,0,0,1,1086.9402688785844,1169.162082514595) translate(0.005000000000002558 17.7777777777776)"/><path d="M700 1365c0-2.76 2.24-5 5-5h90c2.76 0 5 2.24 5 5v30c0 2.76-2.24 5-5 5h-90c-2.76 0-5-2.24-5-5z" stroke="#666" stroke-width="2" fill="#fff"/><use xlink:href="#q" transform="matrix(1,0,0,1,705,1365) translate(20.987654320987893 19.4444444444444)"/><path d="M1120 1355c0-2.76 2.24-5 5-5h193c2.76 0 5 2.24 5 5v50c0 2.76-2.24 5-5 5h-193c-2.76 0-5-2.24-5-5z" stroke="#666" stroke-width="2" fill="#fff"/><use xlink:href="#r" transform="matrix(1,0,0,1,1125,1355) translate(6.500000000000895 29.4444444444444)"/><use xlink:href="#s" transform="matrix(1,0,0,1,1125,1355) translate(114.9567901234566 29.4444444444444)"/><path d="M1035 2025c0-2.76 2.24-5 5-5h180c2.76 0 5 2.24 5 5v31.67c0 2.76-2.24 5-5 5h-180c-2.76 0-5-2.24-5-5z" stroke="#666" stroke-width="2" fill="#fff"/><use xlink:href="#t" transform="matrix(1,0,0,1,1040,2025) translate(20.98765432098834 20.4444444444444)"/><use xlink:href="#u" transform="matrix(1,0,0,1,1040,2025) translate(81.35802469135811 20.4444444444444)"/><use xlink:href="#v" transform="matrix(1,0,0,1,1040,2025) translate(113.39506172839482 20.4444444444444)"/><path d="M892 1537.65H755c-2.76 0-5-2.24-5-5V1400" stroke="#999" stroke-width="2" fill="none"/><path d="M895 1537.3l-.34.48.34.36v.5h-3v-2h3zM754.64 1414.27h-9.28L750 1400z" fill="#999"/><path d="M756 1415.27h-12l4.95-15.27h2.1zm-9.26-2h6.52l-3.26-10.03z" fill="#999"/><path fill="#fff" d="M720 1524.32h99.88V1551h-99.9z"/><use xlink:href="#w" transform="matrix(1,0,0,1,719.9915488443081,1524.3163883430632) translate(0.005000000000002558 17.7777777777776)"/><use xlink:href="#x" transform="matrix(1,0,0,1,719.9915488443081,1524.3163883430632) translate(59.3259876543204 17.7777777777776)"/><path d="M978.14 1497.42c2.5-1.17 6.55-1.17 9.06 0l81.6 38.1c2.5 1.18 2.5 3.08 0 4.25l-81.6 38.1c-2.5 1.18-6.56 1.18-9.06 0l-81.6-38.1c-2.5-1.17-2.5-3.07 0-4.24z" stroke="#666" stroke-width="2" fill="#fff"/><use xlink:href="#y" transform="matrix(1,0,0,1,897,1500.2994433527929) translate(21.43209876543274 41.9444444444444)"/><use xlink:href="#z" transform="matrix(1,0,0,1,897,1500.2994433527929) translate(68.16049382716068 41.9444444444444)"/><path d="M669 1218.88V1275c0 2.76 2.24 5 5 5h303.67c2.76 0 5 2.24 5 5v210.3" stroke="#999" stroke-width="2" fill="none"/><path d="M982.67 1495.3l-4.64-14.27h9.27z" fill="#999"/><path d="M983.3 1496.6l-1.2-.05H982l-5.37-16.52h12.03zm-3.9-14.57l3.27 10.03 3.26-10.03z" fill="#999"/><path d="M1053 1670h192c2.76 0 5 2.24 5 5v45" stroke="#999" stroke-width="2" fill="none"/><path d="M1053 1671h-2.62l.07-1.98-.02-.02h2.57zM1250 1720l-4.64-14.27h9.28z" fill="#999"/><path d="M1251.05 1720h-2.1l-4.96-15.27h12zm-4.3-13.27l3.25 10.03 3.26-10.03z" fill="#999"/><path fill="#fff" d="M1117.63 1656.67h46.86v26.67h-46.87z"/><use xlink:href="#A" transform="matrix(1,0,0,1,1117.631115072292,1656.6666666666667) translate(0.004999999999999005 17.7777777777776)"/><path d="M1140 1725c0-2.76 2.24-5 5-5h210c2.76 0 5 2.24 5 5v33.83c0 2.76-2.24 5-5 5h-210c-2.76 0-5-2.24-5-5z" stroke="#666" stroke-width="2" fill="#fff"/><use xlink:href="#B" transform="matrix(1,0,0,1,1145,1725) translate(13.919753086420656 21.4444444444444)"/><use xlink:href="#C" transform="matrix(1,0,0,1,1145,1725) translate(66.94444444444483 21.4444444444444)"/><use xlink:href="#D" transform="matrix(1,0,0,1,1145,1725) translate(155.5246913580242 21.4444444444444)"/><path d="M1250 1764.56v47.96c0 2.76-2.24 5-5 5H988c-2.76 0-5 2.24-5 5v47.96" stroke="#999" stroke-width="2" fill="none"/><path d="M1251 1764.56h-2v-.73h2zM983 1870.48l-4.64-14.26h9.28z" fill="#999"/><path d="M983.7 1871.53l-1.07-.07-.35.05-5.3-16.28h12.03zm-3.96-14.3l3.26 10.02 3.26-10.03z" fill="#999"/><path d="M800 1380h178c2.76 0 5 2.24 5 5v52.48c0 .1-.07.17-.17.17s-.16.07-.16.17v57.48" stroke="#999" stroke-width="2" fill="none"/><path d="M982.67 1495.3l-4.64-14.27h9.27z" fill="#999"/><path d="M983.3 1496.6l-1.2-.05H982l-5.37-16.52h12.03zm-3.9-14.57l3.27 10.03 3.26-10.03z" fill="#999"/><path d="M1073.33 1537.65h143.17c2.76 0 5-2.24 5-5V1410" stroke="#999" stroke-width="2" fill="none"/><path d="M1073.33 1538.65h-3v-.66l.34-.48-.34-.36v-.5h3zM1226.14 1424.27h-9.28l4.64-14.27z" fill="#999"/><path d="M1227.5 1425.27h-12l4.95-15.27h2.1zm-9.26-2h6.52l-3.26-10.03z" fill="#999"/><path fill="#fff" d="M1099 1524.32h99.9V1551H1099z"/><use xlink:href="#w" transform="matrix(1,0,0,1,1098.9959332674896,1524.3163883430632) translate(0.005000000000002558 17.7777777777776)"/><use xlink:href="#x" transform="matrix(1,0,0,1,1098.9959332674896,1524.3163883430632) translate(59.3259876543204 17.7777777777776)"/><path d="M983 2314.33V2410" stroke="#999" stroke-width="2" fill="none"/><path d="M983.15 2312.68l.85-.12v1.77h-2v-1.77zM983 2410l-4.64-14.27h9.28z" fill="#999"/><path d="M984.05 2410h-2.1l-4.96-15.27h12zm-4.3-13.27l3.25 10.03 3.26-10.03z" fill="#999"/><path fill="#fff" d="M936.12 2359.75h93.78v26.67h-93.78z"/><use xlink:href="#E" transform="matrix(1,0,0,1,936.1172839506178,2359.7533858904353) translate(0.005000000000002558 17.7777777777776)"/><path d="M983 1950v263" stroke="#999" stroke-width="2" fill="none"/><path d="M983.37 1948.54l.63-.1v1.56h-2v-1.55zM983 2213l-4.64-14.27h9.28z" fill="#999"/><path d="M983.5 2214.7l-.65-.06-.35.05-5.5-16.97h12zm-3.76-14.97l3.26 10.03 3.26-10.03z" fill="#999"/><path d="M978.86 2215.8c2.3-1.55 6-1.55 8.28 0l66.4 45.06c2.27 1.55 2.27 4.06 0 5.6l-66.4 45.06c-2.3 1.55-6 1.55-8.28 0l-66.4-45.05c-2.27-1.55-2.27-4.06 0-5.6z" stroke="#666" stroke-width="2" fill="#fff"/><use xlink:href="#F" transform="matrix(1,0,0,1,913.3333333333334,2217.9967256056407) translate(11.85185185185243 50.4444444444444)"/><path d="M1057.67 2263.66h81c.1 0 .16.08.16.17 0 .1.08.17.17.17h81" stroke="#999" stroke-width="2" fill="none"/><path d="M1057.67 2264.66h-2.7l.13-1.87-.1-.14h2.67zM1220 2264l-14.27 4.64v-9.28z" fill="#999"/><path d="M1220 2262.95v2.1l-15.27 4.96v-12zm-13.27 4.3l10.03-3.25-10.03-3.26z" fill="#999"/><path fill="#fff" d="M1062.93 2250.33h120.8V2277h-120.8z"/><use xlink:href="#G" transform="matrix(1,0,0,1,1062.9310537047982,2250.330058938974) translate(0.005000000000002558 17.7777777777776)"/><path d="M903 2415c0-2.76 2.24-5 5-5h150c2.76 0 5 2.24 5 5v30c0 2.76-2.24 5-5 5H908c-2.76 0-5-2.24-5-5z" stroke="#666" stroke-width="2" fill="#fff"/><use xlink:href="#H" transform="matrix(1,0,0,1,908,2415) translate(18.364197530864757 19.4444444444444)"/><use xlink:href="#I" transform="matrix(1,0,0,1,908,2415) translate(63.91975308641986 19.4444444444444)"/><use xlink:href="#J" transform="matrix(1,0,0,1,908,2415) translate(90.95679012345663 19.4444444444444)"/><path d="M1220 2243.5c0-2.76 2.24-5 5-5h190c2.76 0 5 2.24 5 5v41c0 2.76-2.24 5-5 5h-190c-2.76 0-5-2.24-5-5z" stroke="#666" stroke-width="2" fill="#fff"/><use xlink:href="#K" transform="matrix(1,0,0,1,1225,2243.5) translate(10.679012345679851 24.9444444444444)"/><use xlink:href="#z" transform="matrix(1,0,0,1,1225,2243.5) translate(96.91358024691355 24.9444444444444)"/><path d="M908.33 2263.66H465c-2.76 0-5-2.24-5-5v-1156.1c0-2.77 2.24-5 5-5h513c2.76 0 5 2.23 5 5v35" stroke="#999" stroke-width="2" fill="none"/><path d="M910.9 2264.53l.1.13h-2.67v-2h2.7zM983 1137.55l-4.64-14.27h9.28z" fill="#999"/><path d="M983.48 1139.3l-.57-.06-.38.06-5.53-17.02h12zm-3.74-15.02l3.26 10.03 3.26-10.02z" fill="#999"/><path fill="#fff" d="M640.6 2250.33h120.8V2277H640.6z"/><use xlink:href="#G" transform="matrix(1,0,0,1,640.5987654320994,2250.330058938974) translate(0.005000000000002558 17.7777777777776)"/><path d="M978.66 1872.48c2.4-1.37 6.28-1.37 8.68 0l61.32 35.04c2.4 1.37 2.4 3.6 0 4.96l-61.32 35.04c-2.4 1.37-6.28 1.37-8.68 0l-61.32-35.04c-2.4-1.37-2.4-3.6 0-4.96z" stroke="#666" stroke-width="2" fill="#fff"/><use xlink:href="#L" transform="matrix(1,0,0,1,918,1875) translate(39.75308641975334 39.4444444444444)"/><path d="M983 1950v30c0 2.76 2.24 5 5 5h137c2.76 0 5 2.24 5 5v30" stroke="#999" stroke-width="2" fill="none"/><path d="M983.37 1948.54l.63-.1v1.56h-2v-1.55zM1130 2020l-4.64-14.27h9.28z" fill="#999"/><path d="M1131.05 2020h-2.1l-4.96-15.27h12zm-4.3-13.27l3.25 10.03 3.26-10.03z" fill="#999"/><path fill="#fff" d="M961.2 1971.67h50.5v26.67h-50.5z"/><use xlink:href="#L" transform="matrix(1,0,0,1,961.1910896403654,1971.6666666666667) translate(0.004999999999999005 17.7777777777776)"/><path d="M913 1910H465c-2.76 0-5-2.24-5-5v-802.45c0-2.76 2.24-5 5-5h513c2.76 0 5 2.24 5 5v35" stroke="#999" stroke-width="2" fill="none"/><path d="M916 1909.16l-.4 1.36.4.44v.04h-3v-2h3zM983 1137.55l-4.64-14.27h9.28z" fill="#999"/><path d="M983.48 1139.3l-.57-.06-.38.06-5.53-17.02h12zm-3.74-15.02l3.26 10.03 3.26-10.02z" fill="#999"/><path fill="#fff" d="M656.76 1896.67h109.82v26.67H656.76z"/><use xlink:href="#w" transform="matrix(1,0,0,1,656.7592592592599,1896.6666666666667) translate(0.005000000000002558 17.7777777777776)"/><use xlink:href="#M" transform="matrix(1,0,0,1,656.7592592592599,1896.6666666666667) translate(59.3259876543204 17.7777777777776)"/><path d="M700 1380H465c-2.76 0-5-2.24-5-5v-272.45c0-2.76 2.24-5 5-5h513c2.76 0 5 2.24 5 5v35" stroke="#999" stroke-width="2" fill="none"/><path d="M983 1137.55l-4.64-14.27h9.28z" fill="#999"/><path d="M983.48 1139.3l-.57-.06-.38.06-5.53-17.02h12zm-3.74-15.02l3.26 10.03 3.26-10.02z" fill="#999"/><path d="M983 2450v75" stroke="#999" stroke-width="2" fill="none"/><path d="M983 2525l-4.64-14.27h9.28z" fill="#999"/><path d="M983.46 2526.82l-.46-.06-.46.06-5.55-17.1h12zm-3.72-15.1l3.26 10.04 3.26-10.03z" fill="#999"/><path d="M1060 2665.83c0-2.76 2.24-5 5-5h250c2.76 0 5 2.24 5 5V2689c0 2.76-2.24 5-5 5h-250c-2.76 0-5-2.24-5-5z" stroke="#666" stroke-width="2" fill="#fff"/><use xlink:href="#N" transform="matrix(1,0,0,1,1065,2665.833333333334) translate(5.432098765433295 17.7777777777776)"/><use xlink:href="#O" transform="matrix(1,0,0,1,1065,2665.833333333334) translate(92.90123456790155 17.7777777777776)"/><use xlink:href="#P" transform="matrix(1,0,0,1,1065,2665.833333333334) translate(160.67901234567864 17.7777777777776)"/><path d="M979 2528c2.2-1.66 5.8-1.66 8 0l62 46.5c2.2 1.66 2.2 4.34 0 6l-62 46.5c-2.2 1.66-5.8 1.66-8 0l-62-46.5c-2.2-1.66-2.2-4.34 0-6z" stroke="#666" stroke-width="2" fill="#fff"/><use xlink:href="#Q" transform="matrix(1,0,0,1,918,2530) translate(31.728395061728726 38.6111111111112)"/><use xlink:href="#R" transform="matrix(1,0,0,1,918,2530) translate(15.092592592593093 65.2777777777776)"/><path d="M1053 2577.5h132c2.76 0 5 2.24 5 5v78.33" stroke="#999" stroke-width="2" fill="none"/><path d="M1053 2578.5h-2.53v-2h2.53zM1190 2660.83l-4.64-14.26h9.28z" fill="#999"/><path d="M1191.05 2660.83h-2.1l-4.96-15.26h12zm-4.3-13.26l3.25 10.03 3.26-10.03z" fill="#999"/><path fill="#fff" d="M1076.23 2564.17h66.55v26.67h-66.55z"/><use xlink:href="#S" transform="matrix(1,0,0,1,1076.2305892994698,2564.166666666667) translate(0.005000000000002558 17.7777777777776)"/><path d="M913 2577.5H731.5c-2.76 0-5 2.24-5 5v74.5" stroke="#999" stroke-width="2" fill="none"/><path d="M915.53 2578.5H913v-2h2.53zM726.5 2657l-4.64-14.27h9.28z" fill="#999"/><path d="M727.55 2657h-2.1l-4.96-15.27h12zm-4.3-13.27l3.25 10.03 3.26-10.03z" fill="#999"/><path fill="#fff" d="M733.18 2564.17h93.65v26.67h-93.65z"/><use xlink:href="#T" transform="matrix(1,0,0,1,733.1790123456794,2564.166666666667) translate(0.005000000000002558 17.7777777777776)"/><use xlink:href="#U" transform="matrix(1,0,0,1,733.1790123456794,2564.166666666667) translate(48.029691358024216 17.7777777777776)"/><path d="M645 2662c0-2.76 2.24-5 5-5h153c2.76 0 5 2.24 5 5v30c0 2.76-2.24 5-5 5H650c-2.76 0-5-2.24-5-5z" stroke="#666" stroke-width="2" fill="#fff"/><use xlink:href="#N" transform="matrix(1,0,0,1,650,2662) translate(4.432098765432812 19.4444444444444)"/><use xlink:href="#V" transform="matrix(1,0,0,1,650,2662) translate(91.90123456790107 19.4444444444444)"/><path d="M660 2798.5h-28c-2.76 0-5 2.24-5 5v96.5" stroke="#999" stroke-width="2" fill="none"/><path d="M662.53 2799.5H660v-2h2.53zM627 2900l-4.64-14.27h9.28z" fill="#999"/><path d="M628.05 2900h-2.1l-4.96-15.27h12zm-4.3-13.27l3.25 10.03 3.26-10.03z" fill="#999"/><path fill="#fff" d="M608.48 2801.08h37.05v26.67h-37.05z"/><use xlink:href="#W" transform="matrix(1,0,0,1,608.4814814814816,2801.075757575758) translate(0.004999999999999005 17.7777777777776)"/><path d="M508 2905c0-2.76 2.24-5 5-5h228c2.76 0 5 2.24 5 5v43.33c0 2.76-2.24 5-5 5H513c-2.76 0-5-2.24-5-5z" stroke="#666" stroke-width="2" fill="#fff"/><use xlink:href="#k" transform="matrix(1,0,0,1,513,2905) translate(3.660493827161588 26.4444444444444)"/><use xlink:href="#X" transform="matrix(1,0,0,1,513,2905) translate(64.03086419753136 26.4444444444444)"/><use xlink:href="#Y" transform="matrix(1,0,0,1,513,2905) translate(154.0925925925922 26.4444444444444)"/><path d="M627 2953.33v22.84c0 .27-.22.5-.5.5s-.5.22-.5.5V3000" stroke="#999" stroke-width="2" fill="none"/><path d="M626 3000l-4.64-14.27h9.28z" fill="#999"/><path d="M627.05 3000h-2.1l-4.96-15.27h12zm-4.3-13.27l3.25 10.03 3.26-10.03z" fill="#999"/><path d="M496 3005c0-2.76 2.24-5 5-5h250c2.76 0 5 2.24 5 5v40c0 2.76-2.24 5-5 5H501c-2.76 0-5-2.24-5-5z" stroke="#666" stroke-width="2" fill="#fff"/><use xlink:href="#k" transform="matrix(1,0,0,1,501,3005) translate(11.018518518519642 24.4444444444444)"/><use xlink:href="#Z" transform="matrix(1,0,0,1,501,3005) translate(71.38888888888941 24.4444444444444)"/><use xlink:href="#Y" transform="matrix(1,0,0,1,501,3005) translate(168.73456790123416 24.4444444444444)"/><path d="M626 3050v46.67" stroke="#999" stroke-width="2" fill="none"/><path d="M626 3096.67l-4.64-14.27h9.28z" fill="#999"/><path d="M626.46 3098.5l-.46-.08-.46.07-5.55-17.1h12zm-3.72-15.1l3.26 10.03 3.26-10.03z" fill="#999"/><path d="M1190 2694v45" stroke="#999" stroke-width="2" fill="none"/><path d="M1190 2739l-4.64-14.27h9.28z" fill="#999"/><path d="M1190.46 2740.82l-.46-.06-.46.06-5.55-17.1h12zm-3.72-15.1l3.26 10.04 3.26-10.03z" fill="#999"/><path d="M1070 3005c0-2.76 2.24-5 5-5h240c2.76 0 5 2.24 5 5v40c0 2.76-2.24 5-5 5h-240c-2.76 0-5-2.24-5-5z" stroke="#666" stroke-width="2" fill="#fff"/><use xlink:href="#k" transform="matrix(1,0,0,1,1075,3005) translate(6.018518518519642 24.4444444444444)"/><use xlink:href="#Z" transform="matrix(1,0,0,1,1075,3005) translate(66.38888888888941 24.4444444444444)"/><use xlink:href="#Y" transform="matrix(1,0,0,1,1075,3005) translate(163.73456790123416 24.4444444444444)"/><path d="M920 3540v102.73" stroke="#999" stroke-width="2" fill="none"/><path d="M921 3540h-2v-1.9l1 .14 1-.14zM920 3642.73l-4.64-14.26h9.28z" fill="#999"/><path d="M921.05 3642.73h-2.1l-4.96-15.26h12zm-4.3-13.26l3.25 10.03 3.26-10.03z" fill="#999"/><path fill="#fff" d="M906.48 3578.03h27.05v26.67h-27.05z"/><use xlink:href="#aa" transform="matrix(1,0,0,1,906.4814814814816,3578.032743942245) translate(0.005000000000000782 17.7777777777776)"/><path d="M1195 3050v275c0 2.76-2.24 5-5 5H925c-2.76 0-5 2.24-5 5v85" stroke="#999" stroke-width="2" fill="none"/><path d="M920 3420l-4.64-14.27h9.28z" fill="#999"/><path d="M920.46 3421.82l-.46-.06-.46.06-5.55-17.1h12zm-3.72-15.1l3.26 10.04 3.26-10.03z" fill="#999"/><path d="M840 3647.73c0-2.76 2.24-5 5-5h150c2.76 0 5 2.24 5 5v50c0 2.76-2.24 5-5 5H845c-2.76 0-5-2.24-5-5z" stroke="#de5f85" stroke-width="2" fill="#fff"/><use xlink:href="#ab" transform="matrix(1,0,0,1,845,3647.732154551156) translate(29.413580246914023 29.4444444444444)"/><path d="M626 3216.67V3325c0 2.76 2.24 5 5 5h284c2.76 0 5 2.24 5 5v85" stroke="#999" stroke-width="2" fill="none"/><path d="M627 3216.67h-2v-1.9l1 .14 1-.14zM920 3420l-4.64-14.27h9.28z" fill="#999"/><path d="M920.46 3421.82l-.46-.06-.46.06-5.55-17.1h12zm-3.72-15.1l3.26 10.04 3.26-10.03z" fill="#999"/><path fill="#fff" d="M723.74 3316.67h75.2v26.67h-75.2z"/><use xlink:href="#ac" transform="matrix(1,0,0,1,723.740740740741,3316.666666666667) translate(0.005000000000002558 17.7777777777776)"/><path d="M626 3216.67v35c0 2.76 2.24 5 5 5h304c2.76 0 5-2.24 5-5V3177" stroke="#999" stroke-width="2" fill="none"/><path d="M627 3216.67h-2v-1.9l1 .14 1-.14zM944.64 3191.27h-9.28L940 3177z" fill="#999"/><path d="M946 3192.27h-12l4.95-15.27h2.1zm-9.26-2h6.52l-3.26-10.03z" fill="#999"/><path fill="#fff" d="M755.4 3243.33h94.9V3270h-94.9z"/><use xlink:href="#ad" transform="matrix(1,0,0,1,755.3950617283955,3243.3333333333335) translate(0.005000000000002558 17.7777777777776)"/><path d="M895.62 1537.65H465c-2.76 0-5-2.24-5-5v-430.1c0-2.76 2.24-5 5-5h513c2.76 0 5 2.24 5 5v35M895.62 1537.65h3" stroke="#999" stroke-width="2" fill="none"/><path d="M983 1137.55l-4.64-14.27h9.28z" fill="#999"/><path d="M983.48 1139.3l-.57-.06-.38.06-5.53-17.02h12zm-3.74-15.02l3.26 10.03 3.26-10.02z" fill="#999"/><path d="M982.67 1580v19.83c0 .1.07.17.16.17.1 0 .17.07.17.17V1620" stroke="#999" stroke-width="2" fill="none"/><path d="M983.24 1578.75l.43-.05v1.3h-2v-1.3zM983 1620l-4.64-14.27h9.28z" fill="#999"/><path d="M983.48 1621.77l-.55-.07-.4.06-5.54-17.03h12zm-3.74-15.04l3.26 10.03 3.26-10.03z" fill="#999"/><path d="M978.93 1622.9c2.25-1.6 5.9-1.6 8.14 0l61.86 44.2c2.25 1.6 2.25 4.2 0 5.8l-61.86 44.2c-2.25 1.6-5.9 1.6-8.14 0l-61.86-44.2c-2.25-1.6-2.25-4.2 0-5.8z" stroke="#666" stroke-width="2" fill="#fff"/><use xlink:href="#ae" transform="matrix(1,0,0,1,918,1625) translate(18.17901234567948 36.1111111111112)"/><use xlink:href="#af" transform="matrix(1,0,0,1,918,1625) translate(57.561728395061806 36.1111111111112)"/><use xlink:href="#D" transform="matrix(1,0,0,1,918,1625) translate(44.72222222222243 62.7777777777776)"/><path d="M983 1720v150" stroke="#999" stroke-width="2" fill="none"/><path d="M983.07 1718.3l.93-.14v1.84h-2v-1.84zM983 1870l-4.64-14.27h9.28z" fill="#999"/><path d="M983.56 1871.52l-.93-.06-.2.03-5.44-16.77h12zm-3.82-14.8l3.26 10.04 3.26-10.03z" fill="#999"/><path fill="#fff" d="M960.8 1757.33h44.4V1784h-44.4z"/><use xlink:href="#ag" transform="matrix(1,0,0,1,960.8086419753089,1757.3333333333335) translate(0.004999999999999005 17.7777777777776)"/><path d="M1070.58 1537.65H1355c2.76 0 5-2.24 5-5v-430.1c0-2.76-2.24-5-5-5H988c-2.76 0-5 2.24-5 5v35" stroke="#999" stroke-width="2" fill="none"/><path d="M1070.58 1538.65h-.72l.72-1zm0-1.22l-.73-.78h.73zM983 1137.55l-4.64-14.27h9.28z" fill="#999"/><path d="M983.48 1139.3l-.57-.06-.38.06-5.53-17.02h12zm-3.74-15.02l3.26 10.03 3.26-10.02z" fill="#999"/><path d="M1000 2125c0-2.76 2.24-5 5-5h250c2.76 0 5 2.24 5 5v33.75c0 2.76-2.24 5-5 5h-250c-2.76 0-5-2.24-5-5z" stroke="#666" stroke-width="2" fill="#fff"/><use xlink:href="#ah" transform="matrix(1,0,0,1,1005,2125) translate(3.580246913581462 21.4444444444444)"/><use xlink:href="#ai" transform="matrix(1,0,0,1,1005,2125) translate(102.22222222222246 21.4444444444444)"/><use xlink:href="#aj" transform="matrix(1,0,0,1,1005,2125) translate(188.45679012345613 21.4444444444444)"/><path d="M1130 2061.67V2120" stroke="#999" stroke-width="2" fill="none"/><path d="M1130 2120l-4.64-14.27h9.28z" fill="#999"/><path d="M1131.05 2120h-2.1l-4.96-15.27h12zm-4.3-13.27l3.25 10.03 3.26-10.03z" fill="#999"/><path d="M1130 2061.67V2095c0 2.76-2.24 5-5 5H988c-2.76 0-5 2.24-5 5v108" stroke="#999" stroke-width="2" fill="none"/><path d="M983 2213l-4.64-14.27h9.28z" fill="#999"/><path d="M983.5 2214.7l-.65-.06-.35.05-5.5-16.97h12zm-3.76-14.97l3.26 10.03 3.26-10.03z" fill="#999"/><path d="M1130 2163.75v19.62c0 2.76-2.24 5-5 5H988c-2.76 0-5 2.24-5 5V2213" stroke="#999" stroke-width="2" fill="none"/><path d="M983 2213l-4.64-14.27h9.28z" fill="#999"/><path d="M983.5 2214.7l-.65-.06-.35.05-5.5-16.97h12zm-3.76-14.97l3.26 10.03 3.26-10.03z" fill="#999"/><path d="M860 3142c0-2.76 2.24-5 5-5h150c2.76 0 5 2.24 5 5v30c0 2.76-2.24 5-5 5H865c-2.76 0-5-2.24-5-5z" stroke="#666" stroke-width="2" fill="#fff"/><use xlink:href="#ak" transform="matrix(1,0,0,1,865,3142) translate(23.888888888889397 19.4444444444444)"/><use xlink:href="#V" transform="matrix(1,0,0,1,865,3142) translate(69.4444444444445 19.4444444444444)"/><path d="M903 2430H465c-2.76 0-5-2.24-5-5V1102.55c0-2.76 2.24-5 5-5h513c2.76 0 5 2.24 5 5v35" stroke="#999" stroke-width="2" fill="none"/><path d="M983 1137.55l-4.64-14.27h9.28z" fill="#999"/><path d="M983.48 1139.3l-.57-.06-.38.06-5.53-17.02h12zm-3.74-15.02l3.26 10.03 3.26-10.02z" fill="#999"/><path fill="#fff" d="M597.96 2416.67h198.1v26.67h-198.1z"/><use xlink:href="#al" transform="matrix(1,0,0,1,597.9567901234577,2416.666666666667) translate(0.0049999999999954525 17.7777777777776)"/><use xlink:href="#am" transform="matrix(1,0,0,1,597.9567901234577,2416.666666666667) translate(98.46179012345581 17.7777777777776)"/><path d="M736 2741.5c2.2-1.66 5.8-1.66 8 0l72 54c2.2 1.66 2.2 4.34 0 6l-72 54c-2.2 1.66-5.8 1.66-8 0l-72-54c-2.2-1.66-2.2-4.34 0-6z" stroke="#666" stroke-width="2" fill="#fff"/><use xlink:href="#an" transform="matrix(1,0,0,1,665,2743.5) translate(5.987654320988327 59.4444444444444)"/><use xlink:href="#ao" transform="matrix(1,0,0,1,665,2743.5) translate(68.82716049382721 59.4444444444444)"/><path d="M726.5 2697v15.75c0 2.76 2.24 5 5 5h3.5c2.76 0 5 2.24 5 5v15.75" stroke="#999" stroke-width="2" fill="none"/><path d="M740 2738.5l-4.64-14.27h9.28z" fill="#999"/><path d="M740.46 2740.32l-.46-.06-.46.06-5.55-17.1h12zm-3.72-15.1l3.26 10.04 3.26-10.03z" fill="#999"/><path d="M820 2798.5h115c2.76 0 5 2.24 5 5V3137" stroke="#999" stroke-width="2" fill="none"/><path d="M820 2799.5h-2.53v-2H820zM940 3137l-4.64-14.27h9.28z" fill="#999"/><path d="M941.05 3137h-2.1l-4.96-15.27h12zm-4.3-13.27l3.25 10.03 3.26-10.03z" fill="#999"/><path fill="#fff" d="M925.25 2894.42h29.52v26.67h-29.52z"/><use xlink:href="#ap" transform="matrix(1,0,0,1,925.2469135802471,2894.416666666667) translate(0.005000000000000782 17.7777777777776)"/><path d="M1190 2859v68c0 1.38 1.12 2.5 2.5 2.5s2.5 1.12 2.5 2.5v68" stroke="#999" stroke-width="2" fill="none"/><path d="M1191 2859h-2v-1.9l1 .14 1-.14zM1195 3000l-4.64-14.27h9.28z" fill="#999"/><path d="M1196.05 3000h-2.1l-4.96-15.27h12zm-4.3-13.27l3.25 10.03 3.26-10.03z" fill="#999"/><path fill="#fff" d="M1173.98 2916.17h37.04v26.67h-37.04z"/><use xlink:href="#W" transform="matrix(1,0,0,1,1173.9814814814818,2916.166666666667) translate(0.004999999999999005 17.7777777777776)"/><path d="M622 3099.67c2.2-1.66 5.8-1.66 8 0l72 54c2.2 1.65 2.2 4.34 0 6l-72 54c-2.2 1.65-5.8 1.65-8 0l-72-54c-2.2-1.66-2.2-4.35 0-6z" stroke="#666" stroke-width="2" fill="#fff"/><use xlink:href="#aq" transform="matrix(1,0,0,1,551,3101.6666666666665) translate(39.87654320987689 46.1111111111112)"/><use xlink:href="#ao" transform="matrix(1,0,0,1,551,3101.6666666666665) translate(37.407407407407774 72.7777777777776)"/><path d="M1100 3460c0-2.76 2.24-5 5-5h150c2.76 0 5 2.24 5 5v40c0 2.76-2.24 5-5 5h-150c-2.76 0-5-2.24-5-5z" stroke="#666" stroke-width="2" fill="#fff"/><use xlink:href="#ak" transform="matrix(1,0,0,1,1105,3460) translate(9.753086419753743 24.4444444444444)"/><use xlink:href="#ar" transform="matrix(1,0,0,1,1105,3460) translate(55.308641975308845 24.4444444444444)"/><path d="M1186 2742c2.2-1.66 5.8-1.66 8 0l72 54c2.2 1.66 2.2 4.34 0 6l-72 54c-2.2 1.66-5.8 1.66-8 0l-72-54c-2.2-1.66-2.2-4.34 0-6z" stroke="#666" stroke-width="2" fill="#fff"/><g><use xlink:href="#an" transform="matrix(1,0,0,1,1115,2744) translate(5.987654320988327 59.4444444444444)"/><use xlink:href="#ao" transform="matrix(1,0,0,1,1115,2744) translate(68.82716049382721 59.4444444444444)"/></g><path d="M1112.53 2799H945c-2.76 0-5 2.24-5 5v333" stroke="#999" stroke-width="2" fill="none"/><path d="M940 3137l-4.64-14.27h9.28z" fill="#999"/><path d="M941.05 3137h-2.1l-4.96-15.27h12zm-4.3-13.27l3.25 10.03 3.26-10.03z" fill="#999"/><path d="M916 3423c2.2-1.66 5.8-1.66 8 0l72 54c2.2 1.66 2.2 4.34 0 6l-72 54c-2.2 1.66-5.8 1.66-8 0l-72-54c-2.2-1.66-2.2-4.34 0-6z" stroke="#666" stroke-width="2" fill="#fff"/><g><use xlink:href="#ak" transform="matrix(1,0,0,1,845,3425) translate(9.753086419753743 59.4444444444444)"/><use xlink:href="#ar" transform="matrix(1,0,0,1,845,3425) translate(55.308641975308845 59.4444444444444)"/></g><path d="M997.47 3480H1099" stroke="#999" stroke-width="2" fill="none"/><path d="M1099 3480l-14.27 4.64v-9.28z" fill="#999"/><path d="M1100 3479.27v1.46l-16.27 5.28v-12zm-14.27 4l10.03-3.27-10.03-3.26z" fill="#999"/><path fill="#fff" d="M1029.72 3466.67h37.05v26.67h-37.05z"/><g><use xlink:href="#W" transform="matrix(1,0,0,1,1029.7178611478816,3466.666666666667) translate(0.004999999999999005 17.7777777777776)"/></g><path d="M1320 2289.5v70.5" stroke="#999" stroke-width="2" fill="none"/><path d="M1320 2360l-4.64-14.27h9.28z" fill="#999"/><path d="M1321.05 2360h-2.1l-4.96-15.27h12zm-4.3-13.27l3.25 10.03 3.26-10.03z" fill="#999"/><path d="M1200 2365c0-2.76 2.24-5 5-5h230c2.76 0 5 2.24 5 5v50c0 2.76-2.24 5-5 5h-230c-2.76 0-5-2.24-5-5z" stroke="#de5f85" stroke-width="2" fill="#fff"/><g><use xlink:href="#as" transform="matrix(1,0,0,1,1205,2365) translate(3.487654320988753 29.4444444444444)"/><use xlink:href="#at" transform="matrix(1,0,0,1,1205,2365) translate(69.90740740740785 29.4444444444444)"/><use xlink:href="#au" transform="matrix(1,0,0,1,1205,2365) translate(132.74691358024674 29.4444444444444)"/></g><path d="M1320 2420v40" stroke="#999" stroke-width="2" fill="none"/><path d="M1320 2460l-4.64-14.27h9.28z" fill="#999"/><path d="M1320.6 2461.37l-1.1-.05h-.12l-5.4-16.6h12.03zm-3.86-14.64l3.26 10.03 3.26-10.03z" fill="#999"/><path d="M1315.53 2462.24c2.47-1.24 6.47-1.24 8.94 0l71.06 35.52c2.47 1.24 2.47 3.24 0 4.48l-71.06 35.52c-2.47 1.24-6.47 1.24-8.94 0l-71.06-35.52c-2.47-1.24-2.47-3.24 0-4.48z" stroke="#666" stroke-width="2" fill="#fff"/><g><use xlink:href="#av" transform="matrix(1,0,0,1,1245,2465) translate(15.216049382716648 39.4444444444444)"/><use xlink:href="#V" transform="matrix(1,0,0,1,1245,2465) translate(78.11728395061726 39.4444444444444)"/></g><path d="M1240 2500H988c-2.76 0-5 2.24-5 5v20" stroke="#999" stroke-width="2" fill="none"/><path d="M1243 2499.6l-.36.66.36.38v.36h-3v-2h3zM983 2525l-4.64-14.27h9.28z" fill="#999"/><path d="M983.46 2526.82l-.46-.06-.46.06-5.55-17.1h12zm-3.72-15.1l3.26 10.04 3.26-10.03z" fill="#999"/><path fill="#fff" d="M1080.48 2486.67h37.05v26.67h-37.05z"/><g><use xlink:href="#W" transform="matrix(1,0,0,1,1080.4814814814818,2486.666666666667) translate(0.004999999999999005 17.7777777777776)"/></g><path d="M276 1005c0-2.76 2.24-5 5-5h230c2.76 0 5 2.24 5 5v50c0 2.76-2.24 5-5 5H281c-2.76 0-5-2.24-5-5z" stroke="#de5f85" stroke-width="2" fill="#fff"/><g><use xlink:href="#aw" transform="matrix(1,0,0,1,281,1005) translate(19.53703703703799 29.4444444444444)"/><use xlink:href="#ax" transform="matrix(1,0,0,1,281,1005) translate(145.21604938271577 29.4444444444444)"/></g><path d="M536 1003.33c0-2.76 2.24-5 5-5h230c2.76 0 5 2.24 5 5v53.34c0 2.76-2.24 5-5 5H541c-2.76 0-5-2.24-5-5z" stroke="#666" stroke-width="2" fill="#fff"/><g><use xlink:href="#ay" transform="matrix(1,0,0,1,541,1003.3333333333336) translate(55.864197530864786 31.4444444444444)"/><use xlink:href="#az" transform="matrix(1,0,0,1,541,1003.3333333333336) translate(108.88888888888894 31.4444444444444)"/></g><path d="M276 965c0-2.76 2.24-5 5-5h230c2.76 0 5 2.24 5 5v50c0 2.76-2.24 5-5 5H281c-2.76 0-5-2.24-5-5z" fill="none"/><g><use xlink:href="#aA" transform="matrix(1,0,0,1,281,965) translate(0 17.7777777777776)"/></g><path d="M860 3157H704.47" stroke="#999" stroke-width="2" fill="none"/><path d="M718.74 3161.64l-14.27-4.64 14.27-4.64z" fill="#999"/><path d="M719.74 3163l-16.27-5.27v-1.46l16.27-5.28zm-12.03-6l10.04 3.26v-6.52z" fill="#999"/><defs><path fill="#333" d="M205 0l-28-72H64L36 0H1l101-248h38L239 0h-34zm-38-99l-47-123c-12 45-31 82-46 123h93" id="aB"/><path fill="#333" d="M266 0h-40l-56-210L115 0H75L2-248h35L96-30l15-64 43-154h32l59 218 59-218h35" id="aC"/><path fill="#333" d="M233-177c-1 41-23 64-60 70L243 0h-38l-65-103H63V0H30v-248c88 3 205-21 203 71zM63-129c60-2 137 13 137-47 0-61-80-42-137-45v92" id="aD"/><path fill="#333" d="M30 0v-248h187v28H63v79h144v27H63v87h162V0H30" id="aE"/><path fill="#333" d="M190 0L58-211 59 0H30v-248h39L202-35l-2-213h31V0h-41" id="aF"/><path fill="#333" d="M185-189c-5-48-123-54-124 2 14 75 158 14 163 119 3 78-121 87-175 55-17-10-28-26-33-46l33-7c5 56 141 63 141-1 0-78-155-14-162-118-5-82 145-84 179-34 5 7 8 16 11 25" id="aG"/><g id="a"><use transform="matrix(0.06172839506172839,0,0,0.06172839506172839,0,0)" xlink:href="#aB"/><use transform="matrix(0.06172839506172839,0,0,0.06172839506172839,14.012345679012345,0)" xlink:href="#aC"/><use transform="matrix(0.06172839506172839,0,0,0.06172839506172839,34.1358024691358,0)" xlink:href="#aB"/><use transform="matrix(0.06172839506172839,0,0,0.06172839506172839,48.950617283950606,0)" xlink:href="#aD"/><use transform="matrix(0.06172839506172839,0,0,0.06172839506172839,64.93827160493827,0)" xlink:href="#aE"/><use transform="matrix(0.06172839506172839,0,0,0.06172839506172839,79.75308641975307,0)" xlink:href="#aF"/><use transform="matrix(0.06172839506172839,0,0,0.06172839506172839,95.74074074074073,0)" xlink:href="#aE"/><use transform="matrix(0.06172839506172839,0,0,0.06172839506172839,110.55555555555554,0)" xlink:href="#aG"/><use transform="matrix(0.06172839506172839,0,0,0.06172839506172839,125.37037037037035,0)" xlink:href="#aG"/></g><path fill="#333" d="M33 0v-248h34V0H33" id="aH"/><path fill="#333" d="M127-220V0H93v-220H8v-28h204v28h-85" id="aI"/><g id="b"><use transform="matrix(0.06172839506172839,0,0,0.06172839506172839,0,0)" xlink:href="#aH"/><use transform="matrix(0.06172839506172839,0,0,0.06172839506172839,6.172839506172839,0)" xlink:href="#aF"/><use transform="matrix(0.06172839506172839,0,0,0.06172839506172839,22.160493827160494,0)" xlink:href="#aI"/><use transform="matrix(0.06172839506172839,0,0,0.06172839506172839,35.67901234567901,0)" xlink:href="#aE"/><use transform="matrix(0.06172839506172839,0,0,0.06172839506172839,50.49382716049382,0)" xlink:href="#aD"/><use transform="matrix(0.06172839506172839,0,0,0.06172839506172839,66.48148148148148,0)" xlink:href="#aE"/><use transform="matrix(0.06172839506172839,0,0,0.06172839506172839,81.29629629629629,0)" xlink:href="#aG"/><use transform="matrix(0.06172839506172839,0,0,0.06172839506172839,96.1111111111111,0)" xlink:href="#aI"/></g><path fill="#333" d="M30-248c118-7 216 8 213 122C240-48 200 0 122 0H30v-248zM63-27c89 8 146-16 146-99s-60-101-146-95v194" id="aJ"/><g id="c"><use transform="matrix(0.06172839506172839,0,0,0.06172839506172839,0,0)" xlink:href="#aJ"/><use transform="matrix(0.06172839506172839,0,0,0.06172839506172839,15.987654320987653,0)" xlink:href="#aE"/><use transform="matrix(0.06172839506172839,0,0,0.06172839506172839,30.80246913580247,0)" xlink:href="#aG"/><use transform="matrix(0.06172839506172839,0,0,0.06172839506172839,45.61728395061728,0)" xlink:href="#aH"/><use transform="matrix(0.06172839506172839,0,0,0.06172839506172839,51.79012345679012,0)" xlink:href="#aD"/><use transform="matrix(0.06172839506172839,0,0,0.06172839506172839,67.77777777777777,0)" xlink:href="#aE"/></g><path fill="#333" d="M212-179c-10-28-35-45-73-45-59 0-87 40-87 99 0 60 29 101 89 101 43 0 62-24 78-52l27 14C228-24 195 4 139 4 59 4 22-46 18-125c-6-104 99-153 187-111 19 9 31 26 39 46" id="aK"/><path fill="#333" d="M140-251c81 0 123 46 123 126C263-46 219 4 140 4 59 4 17-45 17-125s42-126 123-126zm0 227c63 0 89-41 89-101s-29-99-89-99c-61 0-89 39-89 99S79-25 140-24" id="aL"/><path fill="#333" d="M240 0l2-218c-23 76-54 145-80 218h-23L58-218 59 0H30v-248h44l77 211c21-75 51-140 76-211h43V0h-30" id="aM"/><path fill="#333" d="M30-248c87 1 191-15 191 75 0 78-77 80-158 76V0H30v-248zm33 125c57 0 124 11 124-50 0-59-68-47-124-48v98" id="aN"/><g id="d"><use transform="matrix(0.06172839506172839,0,0,0.06172839506172839,0,0)" xlink:href="#aK"/><use transform="matrix(0.06172839506172839,0,0,0.06172839506172839,15.987654320987653,0)" xlink:href="#aL"/><use transform="matrix(0.06172839506172839,0,0,0.06172839506172839,33.2716049382716,0)" xlink:href="#aM"/><use transform="matrix(0.06172839506172839,0,0,0.06172839506172839,51.72839506172839,0)" xlink:href="#aN"/><use transform="matrix(0.06172839506172839,0,0,0.06172839506172839,64.87654320987654,0)" xlink:href="#aB"/><use transform="matrix(0.06172839506172839,0,0,0.06172839506172839,79.69135802469135,0)" xlink:href="#aD"/><use transform="matrix(0.06172839506172839,0,0,0.06172839506172839,95.67901234567901,0)" xlink:href="#aH"/><use transform="matrix(0.06172839506172839,0,0,0.06172839506172839,101.85185185185185,0)" xlink:href="#aG"/><use transform="matrix(0.06172839506172839,0,0,0.06172839506172839,116.66666666666666,0)" xlink:href="#aL"/><use transform="matrix(0.06172839506172839,0,0,0.06172839506172839,133.9506172839506,0)" xlink:href="#aF"/></g><path fill="#333" d="M232-93c-1 65-40 97-104 97C67 4 28-28 28-90v-158h33c8 89-33 224 67 224 102 0 64-133 71-224h33v155" id="aO"/><g id="e"><use transform="matrix(0.06172839506172839,0,0,0.06172839506172839,0,0)" xlink:href="#aI"/><use transform="matrix(0.06172839506172839,0,0,0.06172839506172839,13.518518518518517,0)" xlink:href="#aD"/><use transform="matrix(0.06172839506172839,0,0,0.06172839506172839,29.50617283950617,0)" xlink:href="#aO"/><use transform="matrix(0.06172839506172839,0,0,0.06172839506172839,45.49382716049382,0)" xlink:href="#aG"/><use transform="matrix(0.06172839506172839,0,0,0.06172839506172839,60.30864197530863,0)" xlink:href="#aI"/></g><path d="M30-248c87 1 191-15 191 75 0 78-77 80-158 76V0H30v-248zm33 125c57 0 124 11 124-50 0-59-68-47-124-48v98" id="aP"/><path d="M232-93c-1 65-40 97-104 97C67 4 28-28 28-90v-158h33c8 89-33 224 67 224 102 0 64-133 71-224h33v155" id="aQ"/><path d="M233-177c-1 41-23 64-60 70L243 0h-38l-65-103H63V0H30v-248c88 3 205-21 203 71zM63-129c60-2 137 13 137-47 0-61-80-42-137-45v92" id="aR"/><path d="M212-179c-10-28-35-45-73-45-59 0-87 40-87 99 0 60 29 101 89 101 43 0 62-24 78-52l27 14C228-24 195 4 139 4 59 4 22-46 18-125c-6-104 99-153 187-111 19 9 31 26 39 46" id="aS"/><path d="M197 0v-115H63V0H30v-248h33v105h134v-105h34V0h-34" id="aT"/><path d="M205 0l-28-72H64L36 0H1l101-248h38L239 0h-34zm-38-99l-47-123c-12 45-31 82-46 123h93" id="aU"/><path d="M185-189c-5-48-123-54-124 2 14 75 158 14 163 119 3 78-121 87-175 55-17-10-28-26-33-46l33-7c5 56 141 63 141-1 0-78-155-14-162-118-5-82 145-84 179-34 5 7 8 16 11 25" id="aV"/><path d="M30 0v-248h187v28H63v79h144v27H63v87h162V0H30" id="aW"/><g id="f"><use transform="matrix(0.05,0,0,0.05,0,0)" xlink:href="#aP"/><use transform="matrix(0.05,0,0,0.05,12,0)" xlink:href="#aQ"/><use transform="matrix(0.05,0,0,0.05,24.950000000000003,0)" xlink:href="#aR"/><use transform="matrix(0.05,0,0,0.05,37.900000000000006,0)" xlink:href="#aS"/><use transform="matrix(0.05,0,0,0.05,50.85000000000001,0)" xlink:href="#aT"/><use transform="matrix(0.05,0,0,0.05,63.80000000000001,0)" xlink:href="#aU"/><use transform="matrix(0.05,0,0,0.05,75.80000000000001,0)" xlink:href="#aV"/><use transform="matrix(0.05,0,0,0.05,87.80000000000001,0)" xlink:href="#aW"/></g><path d="M127-220V0H93v-220H8v-28h204v28h-85" id="aX"/><path d="M190 0L58-211 59 0H30v-248h39L202-35l-2-213h31V0h-41" id="aY"/><g id="g"><use transform="matrix(0.05,0,0,0.05,0,0)" xlink:href="#aR"/><use transform="matrix(0.05,0,0,0.05,12.950000000000001,0)" xlink:href="#aW"/><use transform="matrix(0.05,0,0,0.05,24.950000000000003,0)" xlink:href="#aX"/><use transform="matrix(0.05,0,0,0.05,35.900000000000006,0)" xlink:href="#aQ"/><use transform="matrix(0.05,0,0,0.05,48.85000000000001,0)" xlink:href="#aR"/><use transform="matrix(0.05,0,0,0.05,61.80000000000001,0)" xlink:href="#aY"/><use transform="matrix(0.05,0,0,0.05,74.75000000000001,0)" xlink:href="#aV"/></g><path fill="#333" d="M169-182c-1-43-94-46-97-3 18 66 151 10 154 114 3 95-165 93-204 36-6-8-10-19-12-30l50-8c3 46 112 56 116 5-17-69-150-10-154-114-4-87 153-88 188-35 5 8 8 18 10 28" id="aZ"/><use transform="matrix(0.06172839506172778,0,0,0.06172839506172778,0,0)" xlink:href="#aZ" id="h"/><path fill="#333" d="M137-138c1-29-70-34-71-4 15 46 118 7 119 86 1 83-164 76-172 9l43-7c4 19 20 25 44 25 33 8 57-30 24-41C81-84 22-81 20-136c-2-80 154-74 161-7" id="ba"/><path fill="#333" d="M114-157C55-157 80-60 75 0H25v-261h50l-1 109c12-26 28-41 61-42 86-1 58 113 63 194h-50c-7-57 23-157-34-157" id="bb"/><path fill="#333" d="M110-194c64 0 96 36 96 99 0 64-35 99-97 99-61 0-95-36-95-99 0-62 34-99 96-99zm-1 164c35 0 45-28 45-65 0-40-10-65-43-65-34 0-45 26-45 65 0 36 10 65 43 65" id="bc"/><path fill="#333" d="M135-194c53 0 70 44 70 98 0 56-19 98-73 100-31 1-45-17-59-34 3 33 2 69 2 105H25l-1-265h48c2 10 0 23 3 31 11-24 29-35 60-35zM114-30c33 0 39-31 40-66 0-38-9-64-40-64-56 0-55 130 0 130" id="bd"/><path fill="#333" d="M25-224v-37h50v37H25zM25 0v-190h50V0H25" id="be"/><path fill="#333" d="M135-194c87-1 58 113 63 194h-50c-7-57 23-157-34-157-59 0-34 97-39 157H25l-1-190h47c2 12-1 28 3 38 12-26 28-41 61-42" id="bf"/><path fill="#333" d="M195-6C206 82 75 100 31 46c-4-6-6-13-8-21l49-6c3 16 16 24 34 25 40 0 42-37 40-79-11 22-30 35-61 35-53 0-70-43-70-97 0-56 18-96 73-97 30 0 46 14 59 34l2-30h47zm-90-29c32 0 41-27 41-63 0-35-9-62-40-62-32 0-39 29-40 63 0 36 9 62 39 62" id="bg"/><g id="i"><use transform="matrix(0.06172839506172778,0,0,0.06172839506172778,0,0)" xlink:href="#ba"/><use transform="matrix(0.06172839506172778,0,0,0.06172839506172778,12.345679012345556,0)" xlink:href="#bb"/><use transform="matrix(0.06172839506172778,0,0,0.06172839506172778,25.86419753086394,0)" xlink:href="#bc"/><use transform="matrix(0.06172839506172778,0,0,0.06172839506172778,39.382716049382324,0)" xlink:href="#bd"/><use transform="matrix(0.06172839506172778,0,0,0.06172839506172778,52.90123456790071,0)" xlink:href="#bd"/><use transform="matrix(0.06172839506172778,0,0,0.06172839506172778,66.41975308641909,0)" xlink:href="#be"/><use transform="matrix(0.06172839506172778,0,0,0.06172839506172778,72.59259259259187,0)" xlink:href="#bf"/><use transform="matrix(0.06172839506172778,0,0,0.06172839506172778,86.11111111111026,0)" xlink:href="#bg"/></g><path fill="#333" d="M220-157c-53 9-28 100-34 157h-49v-107c1-27-5-49-29-50C55-147 81-57 75 0H25l-1-190h47c2 12-1 28 3 38 10-53 101-56 108 0 13-22 24-43 59-42 82 1 51 116 57 194h-49v-107c-1-25-5-48-29-50" id="bh"/><path fill="#333" d="M185-48c-13 30-37 53-82 52C43 2 14-33 14-96s30-98 90-98c62 0 83 45 84 108H66c0 31 8 55 39 56 18 0 30-7 34-22zm-45-69c5-46-57-63-70-21-2 6-4 13-4 21h74" id="bi"/><path fill="#333" d="M115-3C79 11 28 4 28-45v-112H4v-33h27l15-45h31v45h36v33H77v99c-1 23 16 31 38 25v30" id="bj"/><path fill="#333" d="M88-194c31-1 46 15 58 34l-1-101h50l1 261h-48c-2-10 0-23-3-31C134-8 116 4 84 4 32 4 16-41 15-95c0-56 19-97 73-99zm17 164c33 0 40-30 41-66 1-37-9-64-41-64s-38 30-39 65c0 43 13 65 39 65" id="bk"/><g id="j"><use transform="matrix(0.06172839506172778,0,0,0.06172839506172778,0,0)" xlink:href="#bh"/><use transform="matrix(0.06172839506172778,0,0,0.06172839506172778,19.75308641975289,0)" xlink:href="#bi"/><use transform="matrix(0.06172839506172778,0,0,0.06172839506172778,32.098765432098446,0)" xlink:href="#bj"/><use transform="matrix(0.06172839506172778,0,0,0.06172839506172778,39.44444444444405,0)" xlink:href="#bb"/><use transform="matrix(0.06172839506172778,0,0,0.06172839506172778,52.962962962962436,0)" xlink:href="#bc"/><use transform="matrix(0.06172839506172778,0,0,0.06172839506172778,66.48148148148081,0)" xlink:href="#bk"/></g><path fill="#333" d="M135-150c-39-12-60 13-60 57V0H25l-1-190h47c2 13-1 29 3 40 6-28 27-53 61-41v41" id="bl"/><g id="k"><use transform="matrix(0.06172839506172778,0,0,0.06172839506172778,0,0)" xlink:href="#bi"/><use transform="matrix(0.06172839506172778,0,0,0.06172839506172778,12.345679012345556,0)" xlink:href="#bf"/><use transform="matrix(0.06172839506172778,0,0,0.06172839506172778,25.86419753086394,0)" xlink:href="#bj"/><use transform="matrix(0.06172839506172778,0,0,0.06172839506172778,33.209876543209546,0)" xlink:href="#bi"/><use transform="matrix(0.06172839506172778,0,0,0.06172839506172778,45.5555555555551,0)" xlink:href="#bl"/></g><path fill="#333" d="M84 4C32 4 15-41 15-95c0-55 18-99 73-99 29 0 47 12 58 34l2-30h48l-1 265h-49V-32C136-9 114 4 84 4zm21-34c32 0 41-29 41-66 0-36-9-64-40-64-33 0-39 30-40 65 0 43 13 65 39 65" id="bm"/><path fill="#333" d="M85 4C-2 5 27-109 22-190h50c7 57-23 150 33 157 60-5 35-97 40-157h50l1 190h-47c-2-12 1-28-3-38-12 25-28 42-61 42" id="bn"/><path fill="#333" d="M123 10C108 53 80 86 19 72V37c35 8 53-11 59-39L3-190h52l48 148c12-52 28-100 44-148h51" id="bo"/><g id="l"><use transform="matrix(0.06172839506172778,0,0,0.06172839506172778,0,0)" xlink:href="#bm"/><use transform="matrix(0.06172839506172778,0,0,0.06172839506172778,13.518518518518384,0)" xlink:href="#bn"/><use transform="matrix(0.06172839506172778,0,0,0.06172839506172778,27.037037037036768,0)" xlink:href="#bi"/><use transform="matrix(0.06172839506172778,0,0,0.06172839506172778,39.382716049382324,0)" xlink:href="#bl"/><use transform="matrix(0.06172839506172778,0,0,0.06172839506172778,48.024691358024214,0)" xlink:href="#bo"/></g><path fill="#333" d="M190-63c-7 42-38 67-86 67-59 0-84-38-90-98-12-110 154-137 174-36l-49 2c-2-19-15-32-35-32-30 0-35 28-38 64-6 74 65 87 74 30" id="bp"/><path fill="#333" d="M25 0v-261h50V0H25" id="bq"/><path fill="#333" d="M147 0L96-86 75-71V0H25v-261h50v150l67-79h53l-66 74L201 0h-54" id="br"/><g id="m"><use transform="matrix(0.06172839506172778,0,0,0.06172839506172778,0,0)" xlink:href="#bp"/><use transform="matrix(0.06172839506172778,0,0,0.06172839506172778,12.345679012345556,0)" xlink:href="#bq"/><use transform="matrix(0.06172839506172778,0,0,0.06172839506172778,18.518518518518334,0)" xlink:href="#be"/><use transform="matrix(0.06172839506172778,0,0,0.06172839506172778,24.691358024691112,0)" xlink:href="#bp"/><use transform="matrix(0.06172839506172778,0,0,0.06172839506172778,37.03703703703667,0)" xlink:href="#br"/></g><path fill="#333" d="M133-34C117-15 103 5 69 4 32 3 11-16 11-54c-1-60 55-63 116-61 1-26-3-47-28-47-18 1-26 9-28 27l-52-2c7-38 36-58 82-57s74 22 75 68l1 82c-1 14 12 18 25 15v27c-30 8-71 5-69-32zm-48 3c29 0 43-24 42-57-32 0-66-3-65 30 0 17 8 27 23 27" id="bs"/><path fill="#333" d="M128 0H69L1-190h53L99-40l48-150h52" id="bt"/><path fill="#333" d="M4 7l51-268h42L46 7H4" id="bu"/><g id="n"><use transform="matrix(0.06172839506172778,0,0,0.06172839506172778,0,0)" xlink:href="#bf"/><use transform="matrix(0.06172839506172778,0,0,0.06172839506172778,13.518518518518384,0)" xlink:href="#bs"/><use transform="matrix(0.06172839506172778,0,0,0.06172839506172778,25.86419753086394,0)" xlink:href="#bt"/><use transform="matrix(0.06172839506172778,0,0,0.06172839506172778,38.209876543209496,0)" xlink:href="#bu"/><use transform="matrix(0.06172839506172778,0,0,0.06172839506172778,44.382716049382275,0)" xlink:href="#bq"/><use transform="matrix(0.06172839506172778,0,0,0.06172839506172778,50.55555555555505,0)" xlink:href="#be"/><use transform="matrix(0.06172839506172778,0,0,0.06172839506172778,56.72839506172783,0)" xlink:href="#bf"/><use transform="matrix(0.06172839506172778,0,0,0.06172839506172778,70.24691358024621,0)" xlink:href="#br"/><use transform="matrix(0.06172839506172778,0,0,0.06172839506172778,82.59259259259177,0)" xlink:href="#ba"/></g><path fill="#333" d="M135-194c52 0 70 43 70 98 0 56-19 99-73 100-30 1-46-15-58-35L72 0H24l1-261h50v104c11-23 29-37 60-37zM114-30c31 0 40-27 40-66 0-37-7-63-39-63s-41 28-41 65c0 36 8 64 40 64" id="bv"/><path fill="#333" d="M231 0h-52l-39-155L100 0H48L-1-190h46L77-45c9-52 24-97 36-145h53l37 145 32-145h46" id="bw"/><g id="o"><use transform="matrix(0.06172839506172778,0,0,0.06172839506172778,0,0)" xlink:href="#bv"/><use transform="matrix(0.06172839506172778,0,0,0.06172839506172778,13.518518518518384,0)" xlink:href="#bl"/><use transform="matrix(0.06172839506172778,0,0,0.06172839506172778,22.160493827160273,0)" xlink:href="#bc"/><use transform="matrix(0.06172839506172778,0,0,0.06172839506172778,35.67901234567866,0)" xlink:href="#bw"/><use transform="matrix(0.06172839506172778,0,0,0.06172839506172778,52.962962962962436,0)" xlink:href="#ba"/><use transform="matrix(0.06172839506172778,0,0,0.06172839506172778,65.30864197530799,0)" xlink:href="#bi"/></g><g id="p"><use transform="matrix(0.06172839506172778,0,0,0.06172839506172778,0,0)" xlink:href="#ba"/><use transform="matrix(0.06172839506172778,0,0,0.06172839506172778,12.345679012345556,0)" xlink:href="#bi"/><use transform="matrix(0.06172839506172778,0,0,0.06172839506172778,24.691358024691112,0)" xlink:href="#bs"/><use transform="matrix(0.06172839506172778,0,0,0.06172839506172778,37.03703703703667,0)" xlink:href="#bl"/><use transform="matrix(0.06172839506172778,0,0,0.06172839506172778,45.67901234567856,0)" xlink:href="#bp"/><use transform="matrix(0.06172839506172778,0,0,0.06172839506172778,58.024691358024114,0)" xlink:href="#bb"/></g><path fill="#333" d="M121-226c-27-7-43 5-38 36h38v33H83V0H34v-157H6v-33h28c-9-59 32-81 87-68v32" id="bx"/><g id="q"><use transform="matrix(0.06172839506172778,0,0,0.06172839506172778,0,0)" xlink:href="#bx"/><use transform="matrix(0.06172839506172778,0,0,0.06172839506172778,7.345679012345606,0)" xlink:href="#be"/><use transform="matrix(0.06172839506172778,0,0,0.06172839506172778,13.518518518518384,0)" xlink:href="#bq"/><use transform="matrix(0.06172839506172778,0,0,0.06172839506172778,19.691358024691162,0)" xlink:href="#bj"/><use transform="matrix(0.06172839506172778,0,0,0.06172839506172778,27.037037037036768,0)" xlink:href="#bi"/><use transform="matrix(0.06172839506172778,0,0,0.06172839506172778,39.382716049382324,0)" xlink:href="#bl"/></g><g id="r"><use transform="matrix(0.06172839506172778,0,0,0.06172839506172778,0,0)" xlink:href="#bs"/><use transform="matrix(0.06172839506172778,0,0,0.06172839506172778,12.345679012345556,0)" xlink:href="#bk"/><use transform="matrix(0.06172839506172778,0,0,0.06172839506172778,25.86419753086394,0)" xlink:href="#bt"/><use transform="matrix(0.06172839506172778,0,0,0.06172839506172778,38.209876543209496,0)" xlink:href="#bs"/><use transform="matrix(0.06172839506172778,0,0,0.06172839506172778,50.55555555555505,0)" xlink:href="#bf"/><use transform="matrix(0.06172839506172778,0,0,0.06172839506172778,64.07407407407344,0)" xlink:href="#bp"/><use transform="matrix(0.06172839506172778,0,0,0.06172839506172778,76.41975308641899,0)" xlink:href="#bi"/><use transform="matrix(0.06172839506172778,0,0,0.06172839506172778,88.76543209876455,0)" xlink:href="#bk"/></g><g id="s"><use transform="matrix(0.06172839506172778,0,0,0.06172839506172778,0,0)" xlink:href="#ba"/><use transform="matrix(0.06172839506172778,0,0,0.06172839506172778,12.345679012345556,0)" xlink:href="#bi"/><use transform="matrix(0.06172839506172778,0,0,0.06172839506172778,24.691358024691112,0)" xlink:href="#bs"/><use transform="matrix(0.06172839506172778,0,0,0.06172839506172778,37.03703703703667,0)" xlink:href="#bl"/><use transform="matrix(0.06172839506172778,0,0,0.06172839506172778,45.67901234567856,0)" xlink:href="#bp"/><use transform="matrix(0.06172839506172778,0,0,0.06172839506172778,58.024691358024114,0)" xlink:href="#bb"/></g><g id="t"><use transform="matrix(0.06172839506172778,0,0,0.06172839506172778,0,0)" xlink:href="#bb"/><use transform="matrix(0.06172839506172778,0,0,0.06172839506172778,13.518518518518384,0)" xlink:href="#bi"/><use transform="matrix(0.06172839506172778,0,0,0.06172839506172778,25.86419753086394,0)" xlink:href="#bs"/><use transform="matrix(0.06172839506172778,0,0,0.06172839506172778,38.209876543209496,0)" xlink:href="#bl"/><use transform="matrix(0.06172839506172778,0,0,0.06172839506172778,46.851851851851386,0)" xlink:href="#bj"/></g><g id="u"><use transform="matrix(0.06172839506172778,0,0,0.06172839506172778,0,0)" xlink:href="#bs"/><use transform="matrix(0.06172839506172778,0,0,0.06172839506172778,12.345679012345556,0)" xlink:href="#bf"/></g><g id="v"><use transform="matrix(0.06172839506172778,0,0,0.06172839506172778,0,0)" xlink:href="#be"/><use transform="matrix(0.06172839506172778,0,0,0.06172839506172778,6.172839506172778,0)" xlink:href="#bj"/><use transform="matrix(0.06172839506172778,0,0,0.06172839506172778,13.518518518518384,0)" xlink:href="#bi"/><use transform="matrix(0.06172839506172778,0,0,0.06172839506172778,25.86419753086394,0)" xlink:href="#bh"/></g><path fill="#333" d="M62-158H24l-5-90h48" id="by"/><g id="w"><use transform="matrix(0.06172839506172778,0,0,0.06172839506172778,0,0)" xlink:href="#bk"/><use transform="matrix(0.06172839506172778,0,0,0.06172839506172778,13.518518518518384,0)" xlink:href="#bc"/><use transform="matrix(0.06172839506172778,0,0,0.06172839506172778,27.037037037036768,0)" xlink:href="#bf"/><use transform="matrix(0.06172839506172778,0,0,0.06172839506172778,40.55555555555515,0)" xlink:href="#by"/><use transform="matrix(0.06172839506172778,0,0,0.06172839506172778,45.80246913580201,0)" xlink:href="#bj"/></g><g id="x"><use transform="matrix(0.06172839506172778,0,0,0.06172839506172778,0,0)" xlink:href="#bx"/><use transform="matrix(0.06172839506172778,0,0,0.06172839506172778,7.345679012345606,0)" xlink:href="#be"/><use transform="matrix(0.06172839506172778,0,0,0.06172839506172778,13.518518518518384,0)" xlink:href="#bf"/><use transform="matrix(0.06172839506172778,0,0,0.06172839506172778,27.037037037036768,0)" xlink:href="#bk"/></g><g id="y"><use transform="matrix(0.06172839506172778,0,0,0.06172839506172778,0,0)" xlink:href="#bx"/><use transform="matrix(0.06172839506172778,0,0,0.06172839506172778,7.345679012345606,0)" xlink:href="#be"/><use transform="matrix(0.06172839506172778,0,0,0.06172839506172778,13.518518518518384,0)" xlink:href="#bf"/><use transform="matrix(0.06172839506172778,0,0,0.06172839506172778,27.037037037036768,0)" xlink:href="#bk"/></g><g id="z"><use transform="matrix(0.06172839506172778,0,0,0.06172839506172778,0,0)" xlink:href="#bd"/><use transform="matrix(0.06172839506172778,0,0,0.06172839506172778,13.518518518518384,0)" xlink:href="#bl"/><use transform="matrix(0.06172839506172778,0,0,0.06172839506172778,22.160493827160273,0)" xlink:href="#bc"/><use transform="matrix(0.06172839506172778,0,0,0.06172839506172778,35.67901234567866,0)" xlink:href="#bk"/><use transform="matrix(0.06172839506172778,0,0,0.06172839506172778,49.19753086419704,0)" xlink:href="#bn"/><use transform="matrix(0.06172839506172778,0,0,0.06172839506172778,62.716049382715426,0)" xlink:href="#bp"/><use transform="matrix(0.06172839506172778,0,0,0.06172839506172778,75.06172839506098,0)" xlink:href="#bj"/></g><g id="A"><use transform="matrix(0.06172839506172778,0,0,0.06172839506172778,0,0)" xlink:href="#bl"/><use transform="matrix(0.06172839506172778,0,0,0.06172839506172778,8.64197530864189,0)" xlink:href="#bi"/><use transform="matrix(0.06172839506172778,0,0,0.06172839506172778,20.987654320987446,0)" xlink:href="#bs"/><use transform="matrix(0.06172839506172778,0,0,0.06172839506172778,33.333333333333,0)" xlink:href="#bk"/></g><g id="B"><use transform="matrix(0.06172839506172778,0,0,0.06172839506172778,0,0)" xlink:href="#bl"/><use transform="matrix(0.06172839506172778,0,0,0.06172839506172778,8.64197530864189,0)" xlink:href="#bi"/><use transform="matrix(0.06172839506172778,0,0,0.06172839506172778,20.987654320987446,0)" xlink:href="#bs"/><use transform="matrix(0.06172839506172778,0,0,0.06172839506172778,33.333333333333,0)" xlink:href="#bk"/></g><g id="C"><use transform="matrix(0.06172839506172778,0,0,0.06172839506172778,0,0)" xlink:href="#bd"/><use transform="matrix(0.06172839506172778,0,0,0.06172839506172778,13.518518518518384,0)" xlink:href="#bl"/><use transform="matrix(0.06172839506172778,0,0,0.06172839506172778,22.160493827160273,0)" xlink:href="#bc"/><use transform="matrix(0.06172839506172778,0,0,0.06172839506172778,35.67901234567866,0)" xlink:href="#bk"/><use transform="matrix(0.06172839506172778,0,0,0.06172839506172778,49.19753086419704,0)" xlink:href="#bn"/><use transform="matrix(0.06172839506172778,0,0,0.06172839506172778,62.716049382715426,0)" xlink:href="#bp"/><use transform="matrix(0.06172839506172778,0,0,0.06172839506172778,75.06172839506098,0)" xlink:href="#bj"/></g><g id="D"><use transform="matrix(0.06172839506172778,0,0,0.06172839506172778,0,0)" xlink:href="#be"/><use transform="matrix(0.06172839506172778,0,0,0.06172839506172778,6.172839506172778,0)" xlink:href="#bf"/><use transform="matrix(0.06172839506172778,0,0,0.06172839506172778,19.691358024691162,0)" xlink:href="#bx"/><use transform="matrix(0.06172839506172778,0,0,0.06172839506172778,27.037037037036768,0)" xlink:href="#bc"/></g><g id="E"><use transform="matrix(0.06172839506172778,0,0,0.06172839506172778,0,0)" xlink:href="#bs"/><use transform="matrix(0.06172839506172778,0,0,0.06172839506172778,12.345679012345556,0)" xlink:href="#bt"/><use transform="matrix(0.06172839506172778,0,0,0.06172839506172778,24.691358024691112,0)" xlink:href="#bs"/><use transform="matrix(0.06172839506172778,0,0,0.06172839506172778,37.03703703703667,0)" xlink:href="#be"/><use transform="matrix(0.06172839506172778,0,0,0.06172839506172778,43.20987654320945,0)" xlink:href="#bq"/><use transform="matrix(0.06172839506172778,0,0,0.06172839506172778,49.382716049382225,0)" xlink:href="#bs"/><use transform="matrix(0.06172839506172778,0,0,0.06172839506172778,61.72839506172778,0)" xlink:href="#bv"/><use transform="matrix(0.06172839506172778,0,0,0.06172839506172778,75.24691358024617,0)" xlink:href="#bq"/><use transform="matrix(0.06172839506172778,0,0,0.06172839506172778,81.41975308641895,0)" xlink:href="#bi"/></g><path fill="#333" d="M199 0l-22-63H83L61 0H9l90-248h61L250 0h-51zm-33-102l-36-108c-10 38-24 72-36 108h72" id="bz"/><g id="F"><use transform="matrix(0.06172839506172778,0,0,0.06172839506172778,0,0)" xlink:href="#bz"/><use transform="matrix(0.06172839506172778,0,0,0.06172839506172778,15.185185185185034,0)" xlink:href="#bt"/><use transform="matrix(0.06172839506172778,0,0,0.06172839506172778,27.53086419753059,0)" xlink:href="#bs"/><use transform="matrix(0.06172839506172778,0,0,0.06172839506172778,39.87654320987615,0)" xlink:href="#be"/><use transform="matrix(0.06172839506172778,0,0,0.06172839506172778,46.049382716048925,0)" xlink:href="#bq"/><use transform="matrix(0.06172839506172778,0,0,0.06172839506172778,52.2222222222217,0)" xlink:href="#bs"/><use transform="matrix(0.06172839506172778,0,0,0.06172839506172778,64.56790123456726,0)" xlink:href="#bv"/><use transform="matrix(0.06172839506172778,0,0,0.06172839506172778,78.08641975308564,0)" xlink:href="#be"/><use transform="matrix(0.06172839506172778,0,0,0.06172839506172778,84.25925925925841,0)" xlink:href="#bq"/><use transform="matrix(0.06172839506172778,0,0,0.06172839506172778,90.43209876543119,0)" xlink:href="#be"/><use transform="matrix(0.06172839506172778,0,0,0.06172839506172778,96.60493827160397,0)" xlink:href="#bj"/><use transform="matrix(0.06172839506172778,0,0,0.06172839506172778,103.95061728394958,0)" xlink:href="#bo"/></g><g id="G"><use transform="matrix(0.06172839506172778,0,0,0.06172839506172778,0,0)" xlink:href="#bn"/><use transform="matrix(0.06172839506172778,0,0,0.06172839506172778,13.518518518518384,0)" xlink:href="#bf"/><use transform="matrix(0.06172839506172778,0,0,0.06172839506172778,27.037037037036768,0)" xlink:href="#bs"/><use transform="matrix(0.06172839506172778,0,0,0.06172839506172778,39.382716049382324,0)" xlink:href="#bt"/><use transform="matrix(0.06172839506172778,0,0,0.06172839506172778,51.72839506172788,0)" xlink:href="#bs"/><use transform="matrix(0.06172839506172778,0,0,0.06172839506172778,64.07407407407344,0)" xlink:href="#be"/><use transform="matrix(0.06172839506172778,0,0,0.06172839506172778,70.24691358024621,0)" xlink:href="#bq"/><use transform="matrix(0.06172839506172778,0,0,0.06172839506172778,76.41975308641899,0)" xlink:href="#bs"/><use transform="matrix(0.06172839506172778,0,0,0.06172839506172778,88.76543209876455,0)" xlink:href="#bv"/><use transform="matrix(0.06172839506172778,0,0,0.06172839506172778,102.28395061728293,0)" xlink:href="#bq"/><use transform="matrix(0.06172839506172778,0,0,0.06172839506172778,108.4567901234557,0)" xlink:href="#bi"/></g><g id="H"><use transform="matrix(0.06172839506172778,0,0,0.06172839506172778,0,0)" xlink:href="#bs"/><use transform="matrix(0.06172839506172778,0,0,0.06172839506172778,12.345679012345556,0)" xlink:href="#bk"/><use transform="matrix(0.06172839506172778,0,0,0.06172839506172778,25.86419753086394,0)" xlink:href="#bk"/></g><g id="I"><use transform="matrix(0.06172839506172778,0,0,0.06172839506172778,0,0)" xlink:href="#bj"/><use transform="matrix(0.06172839506172778,0,0,0.06172839506172778,7.345679012345606,0)" xlink:href="#bc"/></g><g id="J"><use transform="matrix(0.06172839506172778,0,0,0.06172839506172778,0,0)" xlink:href="#bp"/><use transform="matrix(0.06172839506172778,0,0,0.06172839506172778,12.345679012345556,0)" xlink:href="#bs"/><use transform="matrix(0.06172839506172778,0,0,0.06172839506172778,24.691358024691112,0)" xlink:href="#bl"/><use transform="matrix(0.06172839506172778,0,0,0.06172839506172778,33.333333333333,0)" xlink:href="#bj"/></g><g id="K"><use transform="matrix(0.06172839506172778,0,0,0.06172839506172778,0,0)" xlink:href="#bl"/><use transform="matrix(0.06172839506172778,0,0,0.06172839506172778,8.64197530864189,0)" xlink:href="#bi"/><use transform="matrix(0.06172839506172778,0,0,0.06172839506172778,20.987654320987446,0)" xlink:href="#bm"/><use transform="matrix(0.06172839506172778,0,0,0.06172839506172778,34.50617283950583,0)" xlink:href="#bn"/><use transform="matrix(0.06172839506172778,0,0,0.06172839506172778,48.024691358024214,0)" xlink:href="#bi"/><use transform="matrix(0.06172839506172778,0,0,0.06172839506172778,60.37037037036977,0)" xlink:href="#ba"/><use transform="matrix(0.06172839506172778,0,0,0.06172839506172778,72.71604938271533,0)" xlink:href="#bj"/></g><g id="L"><use transform="matrix(0.06172839506172778,0,0,0.06172839506172778,0,0)" xlink:href="#bw"/><use transform="matrix(0.06172839506172778,0,0,0.06172839506172778,17.28395061728378,0)" xlink:href="#bs"/><use transform="matrix(0.06172839506172778,0,0,0.06172839506172778,29.629629629629335,0)" xlink:href="#bf"/><use transform="matrix(0.06172839506172778,0,0,0.06172839506172778,43.14814814814772,0)" xlink:href="#bj"/></g><g id="M"><use transform="matrix(0.06172839506172778,0,0,0.06172839506172778,0,0)" xlink:href="#bw"/><use transform="matrix(0.06172839506172778,0,0,0.06172839506172778,17.28395061728378,0)" xlink:href="#bs"/><use transform="matrix(0.06172839506172778,0,0,0.06172839506172778,29.629629629629335,0)" xlink:href="#bf"/><use transform="matrix(0.06172839506172778,0,0,0.06172839506172778,43.14814814814772,0)" xlink:href="#bj"/></g><g id="N"><use transform="matrix(0.06172839506172778,0,0,0.06172839506172778,0,0)" xlink:href="#bp"/><use transform="matrix(0.06172839506172778,0,0,0.06172839506172778,12.345679012345556,0)" xlink:href="#bc"/><use transform="matrix(0.06172839506172778,0,0,0.06172839506172778,25.86419753086394,0)" xlink:href="#bf"/><use transform="matrix(0.06172839506172778,0,0,0.06172839506172778,39.382716049382324,0)" xlink:href="#bx"/><use transform="matrix(0.06172839506172778,0,0,0.06172839506172778,46.72839506172793,0)" xlink:href="#be"/><use transform="matrix(0.06172839506172778,0,0,0.06172839506172778,52.90123456790071,0)" xlink:href="#bl"/><use transform="matrix(0.06172839506172778,0,0,0.06172839506172778,61.5432098765426,0)" xlink:href="#bh"/></g><path fill="#333" d="M76-54c-1 42 2 86-19 110H24C36 42 46 24 48 0H25v-54h51" id="bA"/><g id="O"><use transform="matrix(0.06172839506172778,0,0,0.06172839506172778,0,0)" xlink:href="#bc"/><use transform="matrix(0.06172839506172778,0,0,0.06172839506172778,13.518518518518384,0)" xlink:href="#bl"/><use transform="matrix(0.06172839506172778,0,0,0.06172839506172778,22.160493827160273,0)" xlink:href="#bk"/><use transform="matrix(0.06172839506172778,0,0,0.06172839506172778,35.67901234567866,0)" xlink:href="#bi"/><use transform="matrix(0.06172839506172778,0,0,0.06172839506172778,48.024691358024214,0)" xlink:href="#bl"/><use transform="matrix(0.06172839506172778,0,0,0.06172839506172778,55.43209876543155,0)" xlink:href="#bA"/></g><g id="P"><use transform="matrix(0.06172839506172778,0,0,0.06172839506172778,0,0)" xlink:href="#bk"/><use transform="matrix(0.06172839506172778,0,0,0.06172839506172778,13.518518518518384,0)" xlink:href="#bi"/><use transform="matrix(0.06172839506172778,0,0,0.06172839506172778,25.86419753086394,0)" xlink:href="#bq"/><use transform="matrix(0.06172839506172778,0,0,0.06172839506172778,32.03703703703672,0)" xlink:href="#be"/><use transform="matrix(0.06172839506172778,0,0,0.06172839506172778,38.209876543209496,0)" xlink:href="#bt"/><use transform="matrix(0.06172839506172778,0,0,0.06172839506172778,50.55555555555505,0)" xlink:href="#bi"/><use transform="matrix(0.06172839506172778,0,0,0.06172839506172778,62.90123456790061,0)" xlink:href="#bl"/><use transform="matrix(0.06172839506172778,0,0,0.06172839506172778,71.5432098765425,0)" xlink:href="#bo"/></g><g id="Q"><use transform="matrix(0.06172839506172778,0,0,0.06172839506172778,0,0)" xlink:href="#bl"/><use transform="matrix(0.06172839506172778,0,0,0.06172839506172778,8.64197530864189,0)" xlink:href="#bi"/><use transform="matrix(0.06172839506172778,0,0,0.06172839506172778,20.987654320987446,0)" xlink:href="#bd"/><use transform="matrix(0.06172839506172778,0,0,0.06172839506172778,34.50617283950583,0)" xlink:href="#bi"/><use transform="matrix(0.06172839506172778,0,0,0.06172839506172778,46.851851851851386,0)" xlink:href="#bs"/><use transform="matrix(0.06172839506172778,0,0,0.06172839506172778,59.19753086419694,0)" xlink:href="#bj"/></g><g id="R"><use transform="matrix(0.06172839506172778,0,0,0.06172839506172778,0,0)" xlink:href="#bp"/><use transform="matrix(0.06172839506172778,0,0,0.06172839506172778,12.345679012345556,0)" xlink:href="#bn"/><use transform="matrix(0.06172839506172778,0,0,0.06172839506172778,25.86419753086394,0)" xlink:href="#ba"/><use transform="matrix(0.06172839506172778,0,0,0.06172839506172778,38.209876543209496,0)" xlink:href="#bj"/><use transform="matrix(0.06172839506172778,0,0,0.06172839506172778,45.5555555555551,0)" xlink:href="#bc"/><use transform="matrix(0.06172839506172778,0,0,0.06172839506172778,59.074074074073486,0)" xlink:href="#bh"/><use transform="matrix(0.06172839506172778,0,0,0.06172839506172778,78.82716049382637,0)" xlink:href="#bi"/><use transform="matrix(0.06172839506172778,0,0,0.06172839506172778,91.17283950617193,0)" xlink:href="#bl"/></g><g id="S"><use transform="matrix(0.06172839506172778,0,0,0.06172839506172778,0,0)" xlink:href="#bl"/><use transform="matrix(0.06172839506172778,0,0,0.06172839506172778,8.64197530864189,0)" xlink:href="#bi"/><use transform="matrix(0.06172839506172778,0,0,0.06172839506172778,20.987654320987446,0)" xlink:href="#bd"/><use transform="matrix(0.06172839506172778,0,0,0.06172839506172778,34.50617283950583,0)" xlink:href="#bi"/><use transform="matrix(0.06172839506172778,0,0,0.06172839506172778,46.851851851851386,0)" xlink:href="#bs"/><use transform="matrix(0.06172839506172778,0,0,0.06172839506172778,59.19753086419694,0)" xlink:href="#bj"/></g><g id="T"><use transform="matrix(0.06172839506172778,0,0,0.06172839506172778,0,0)" xlink:href="#bx"/><use transform="matrix(0.06172839506172778,0,0,0.06172839506172778,7.345679012345606,0)" xlink:href="#be"/><use transform="matrix(0.06172839506172778,0,0,0.06172839506172778,13.518518518518384,0)" xlink:href="#bl"/><use transform="matrix(0.06172839506172778,0,0,0.06172839506172778,22.160493827160273,0)" xlink:href="#ba"/><use transform="matrix(0.06172839506172778,0,0,0.06172839506172778,34.50617283950583,0)" xlink:href="#bj"/></g><g id="U"><use transform="matrix(0.06172839506172778,0,0,0.06172839506172778,0,0)" xlink:href="#bj"/><use transform="matrix(0.06172839506172778,0,0,0.06172839506172778,7.345679012345606,0)" xlink:href="#be"/><use transform="matrix(0.06172839506172778,0,0,0.06172839506172778,13.518518518518384,0)" xlink:href="#bh"/><use transform="matrix(0.06172839506172778,0,0,0.06172839506172778,33.271604938271274,0)" xlink:href="#bi"/></g><g id="V"><use transform="matrix(0.06172839506172778,0,0,0.06172839506172778,0,0)" xlink:href="#bc"/><use transform="matrix(0.06172839506172778,0,0,0.06172839506172778,13.518518518518384,0)" xlink:href="#bl"/><use transform="matrix(0.06172839506172778,0,0,0.06172839506172778,22.160493827160273,0)" xlink:href="#bk"/><use transform="matrix(0.06172839506172778,0,0,0.06172839506172778,35.67901234567866,0)" xlink:href="#bi"/><use transform="matrix(0.06172839506172778,0,0,0.06172839506172778,48.024691358024214,0)" xlink:href="#bl"/></g><g id="W"><use transform="matrix(0.06172839506172778,0,0,0.06172839506172778,0,0)" xlink:href="#bo"/><use transform="matrix(0.06172839506172778,0,0,0.06172839506172778,12.345679012345556,0)" xlink:href="#bi"/><use transform="matrix(0.06172839506172778,0,0,0.06172839506172778,24.691358024691112,0)" xlink:href="#ba"/></g><g id="X"><use transform="matrix(0.06172839506172778,0,0,0.06172839506172778,0,0)" xlink:href="#bk"/><use transform="matrix(0.06172839506172778,0,0,0.06172839506172778,13.518518518518384,0)" xlink:href="#bi"/><use transform="matrix(0.06172839506172778,0,0,0.06172839506172778,25.86419753086394,0)" xlink:href="#bq"/><use transform="matrix(0.06172839506172778,0,0,0.06172839506172778,32.03703703703672,0)" xlink:href="#be"/><use transform="matrix(0.06172839506172778,0,0,0.06172839506172778,38.209876543209496,0)" xlink:href="#bt"/><use transform="matrix(0.06172839506172778,0,0,0.06172839506172778,50.55555555555505,0)" xlink:href="#bi"/><use transform="matrix(0.06172839506172778,0,0,0.06172839506172778,62.90123456790061,0)" xlink:href="#bl"/><use transform="matrix(0.06172839506172778,0,0,0.06172839506172778,71.5432098765425,0)" xlink:href="#bo"/></g><g id="Y"><use transform="matrix(0.06172839506172778,0,0,0.06172839506172778,0,0)" xlink:href="#bk"/><use transform="matrix(0.06172839506172778,0,0,0.06172839506172778,13.518518518518384,0)" xlink:href="#bi"/><use transform="matrix(0.06172839506172778,0,0,0.06172839506172778,25.86419753086394,0)" xlink:href="#bj"/><use transform="matrix(0.06172839506172778,0,0,0.06172839506172778,33.209876543209546,0)" xlink:href="#bs"/><use transform="matrix(0.06172839506172778,0,0,0.06172839506172778,45.5555555555551,0)" xlink:href="#be"/><use transform="matrix(0.06172839506172778,0,0,0.06172839506172778,51.72839506172788,0)" xlink:href="#bq"/><use transform="matrix(0.06172839506172778,0,0,0.06172839506172778,57.90123456790066,0)" xlink:href="#ba"/></g><g id="Z"><use transform="matrix(0.06172839506172778,0,0,0.06172839506172778,0,0)" xlink:href="#bd"/><use transform="matrix(0.06172839506172778,0,0,0.06172839506172778,13.518518518518384,0)" xlink:href="#bs"/><use transform="matrix(0.06172839506172778,0,0,0.06172839506172778,25.86419753086394,0)" xlink:href="#bo"/><use transform="matrix(0.06172839506172778,0,0,0.06172839506172778,38.209876543209496,0)" xlink:href="#bh"/><use transform="matrix(0.06172839506172778,0,0,0.06172839506172778,57.962962962962386,0)" xlink:href="#bi"/><use transform="matrix(0.06172839506172778,0,0,0.06172839506172778,70.30864197530795,0)" xlink:href="#bf"/><use transform="matrix(0.06172839506172778,0,0,0.06172839506172778,83.82716049382634,0)" xlink:href="#bj"/></g><g id="aa"><use transform="matrix(0.06172839506172778,0,0,0.06172839506172778,0,0)" xlink:href="#bf"/><use transform="matrix(0.06172839506172778,0,0,0.06172839506172778,13.518518518518384,0)" xlink:href="#bc"/></g><path fill="#de5f85" d="M136-208V0H84v-208H4v-40h212v40h-80" id="bB"/><path fill="#de5f85" d="M135-150c-39-12-60 13-60 57V0H25l-1-190h47c2 13-1 29 3 40 6-28 27-53 61-41v41" id="bC"/><path fill="#de5f85" d="M133-34C117-15 103 5 69 4 32 3 11-16 11-54c-1-60 55-63 116-61 1-26-3-47-28-47-18 1-26 9-28 27l-52-2c7-38 36-58 82-57s74 22 75 68l1 82c-1 14 12 18 25 15v27c-30 8-71 5-69-32zm-48 3c29 0 43-24 42-57-32 0-66-3-65 30 0 17 8 27 23 27" id="bD"/><path fill="#de5f85" d="M190-63c-7 42-38 67-86 67-59 0-84-38-90-98-12-110 154-137 174-36l-49 2c-2-19-15-32-35-32-30 0-35 28-38 64-6 74 65 87 74 30" id="bE"/><path fill="#de5f85" d="M147 0L96-86 75-71V0H25v-261h50v150l67-79h53l-66 74L201 0h-54" id="bF"/><path fill="#de5f85" d="M25-224v-37h50v37H25zM25 0v-190h50V0H25" id="bG"/><path fill="#de5f85" d="M135-194c87-1 58 113 63 194h-50c-7-57 23-157-34-157-59 0-34 97-39 157H25l-1-190h47c2 12-1 28 3 38 12-26 28-41 61-42" id="bH"/><path fill="#de5f85" d="M195-6C206 82 75 100 31 46c-4-6-6-13-8-21l49-6c3 16 16 24 34 25 40 0 42-37 40-79-11 22-30 35-61 35-53 0-70-43-70-97 0-56 18-96 73-97 30 0 46 14 59 34l2-30h47zm-90-29c32 0 41-27 41-63 0-35-9-62-40-62-32 0-39 29-40 63 0 36 9 62 39 62" id="bI"/><g id="ab"><use transform="matrix(0.06172839506172778,0,0,0.06172839506172778,0,0)" xlink:href="#bB"/><use transform="matrix(0.06172839506172778,0,0,0.06172839506172778,12.283950617283828,0)" xlink:href="#bC"/><use transform="matrix(0.06172839506172778,0,0,0.06172839506172778,20.925925925925718,0)" xlink:href="#bD"/><use transform="matrix(0.06172839506172778,0,0,0.06172839506172778,33.271604938271274,0)" xlink:href="#bE"/><use transform="matrix(0.06172839506172778,0,0,0.06172839506172778,45.61728395061683,0)" xlink:href="#bF"/><use transform="matrix(0.06172839506172778,0,0,0.06172839506172778,57.962962962962386,0)" xlink:href="#bG"/><use transform="matrix(0.06172839506172778,0,0,0.06172839506172778,64.13580246913517,0)" xlink:href="#bH"/><use transform="matrix(0.06172839506172778,0,0,0.06172839506172778,77.65432098765356,0)" xlink:href="#bI"/></g><g id="ac"><use transform="matrix(0.06172839506172778,0,0,0.06172839506172778,0,0)" xlink:href="#bp"/><use transform="matrix(0.06172839506172778,0,0,0.06172839506172778,12.345679012345556,0)" xlink:href="#bc"/><use transform="matrix(0.06172839506172778,0,0,0.06172839506172778,25.86419753086394,0)" xlink:href="#bl"/><use transform="matrix(0.06172839506172778,0,0,0.06172839506172778,34.50617283950583,0)" xlink:href="#bl"/><use transform="matrix(0.06172839506172778,0,0,0.06172839506172778,43.14814814814772,0)" xlink:href="#bi"/><use transform="matrix(0.06172839506172778,0,0,0.06172839506172778,55.493827160493275,0)" xlink:href="#bp"/><use transform="matrix(0.06172839506172778,0,0,0.06172839506172778,67.83950617283884,0)" xlink:href="#bj"/></g><g id="ad"><use transform="matrix(0.06172839506172778,0,0,0.06172839506172778,0,0)" xlink:href="#be"/><use transform="matrix(0.06172839506172778,0,0,0.06172839506172778,6.172839506172778,0)" xlink:href="#bf"/><use transform="matrix(0.06172839506172778,0,0,0.06172839506172778,19.691358024691162,0)" xlink:href="#bp"/><use transform="matrix(0.06172839506172778,0,0,0.06172839506172778,32.03703703703672,0)" xlink:href="#bc"/><use transform="matrix(0.06172839506172778,0,0,0.06172839506172778,45.5555555555551,0)" xlink:href="#bl"/><use transform="matrix(0.06172839506172778,0,0,0.06172839506172778,54.19753086419699,0)" xlink:href="#bl"/><use transform="matrix(0.06172839506172778,0,0,0.06172839506172778,62.83950617283888,0)" xlink:href="#bi"/><use transform="matrix(0.06172839506172778,0,0,0.06172839506172778,75.18518518518444,0)" xlink:href="#bp"/><use transform="matrix(0.06172839506172778,0,0,0.06172839506172778,87.53086419753,0)" xlink:href="#bj"/></g><g id="ae"><use transform="matrix(0.06172839506172778,0,0,0.06172839506172778,0,0)" xlink:href="#bg"/><use transform="matrix(0.06172839506172778,0,0,0.06172839506172778,13.518518518518384,0)" xlink:href="#bi"/><use transform="matrix(0.06172839506172778,0,0,0.06172839506172778,25.86419753086394,0)" xlink:href="#bj"/></g><g id="af"><use transform="matrix(0.06172839506172778,0,0,0.06172839506172778,0,0)" xlink:href="#bh"/><use transform="matrix(0.06172839506172778,0,0,0.06172839506172778,19.75308641975289,0)" xlink:href="#bc"/><use transform="matrix(0.06172839506172778,0,0,0.06172839506172778,33.271604938271274,0)" xlink:href="#bl"/><use transform="matrix(0.06172839506172778,0,0,0.06172839506172778,41.91358024691316,0)" xlink:href="#bi"/></g><g id="ag"><use transform="matrix(0.06172839506172778,0,0,0.06172839506172778,0,0)" xlink:href="#ba"/><use transform="matrix(0.06172839506172778,0,0,0.06172839506172778,12.345679012345556,0)" xlink:href="#br"/><use transform="matrix(0.06172839506172778,0,0,0.06172839506172778,24.691358024691112,0)" xlink:href="#be"/><use transform="matrix(0.06172839506172778,0,0,0.06172839506172778,30.86419753086389,0)" xlink:href="#bd"/></g><g id="ah"><use transform="matrix(0.06172839506172778,0,0,0.06172839506172778,0,0)" xlink:href="#bp"/><use transform="matrix(0.06172839506172778,0,0,0.06172839506172778,12.345679012345556,0)" xlink:href="#bc"/><use transform="matrix(0.06172839506172778,0,0,0.06172839506172778,25.86419753086394,0)" xlink:href="#bh"/><use transform="matrix(0.06172839506172778,0,0,0.06172839506172778,45.61728395061683,0)" xlink:href="#bd"/><use transform="matrix(0.06172839506172778,0,0,0.06172839506172778,59.135802469135214,0)" xlink:href="#bs"/><use transform="matrix(0.06172839506172778,0,0,0.06172839506172778,71.48148148148077,0)" xlink:href="#bl"/><use transform="matrix(0.06172839506172778,0,0,0.06172839506172778,80.12345679012266,0)" xlink:href="#bi"/></g><g id="ai"><use transform="matrix(0.06172839506172778,0,0,0.06172839506172778,0,0)" xlink:href="#bb"/><use transform="matrix(0.06172839506172778,0,0,0.06172839506172778,13.518518518518384,0)" xlink:href="#bi"/><use transform="matrix(0.06172839506172778,0,0,0.06172839506172778,25.86419753086394,0)" xlink:href="#bs"/><use transform="matrix(0.06172839506172778,0,0,0.06172839506172778,38.209876543209496,0)" xlink:href="#bl"/><use transform="matrix(0.06172839506172778,0,0,0.06172839506172778,46.851851851851386,0)" xlink:href="#bj"/><use transform="matrix(0.06172839506172778,0,0,0.06172839506172778,54.19753086419699,0)" xlink:href="#bi"/><use transform="matrix(0.06172839506172778,0,0,0.06172839506172778,66.54320987654255,0)" xlink:href="#bk"/></g><g id="aj"><use transform="matrix(0.06172839506172778,0,0,0.06172839506172778,0,0)" xlink:href="#be"/><use transform="matrix(0.06172839506172778,0,0,0.06172839506172778,6.172839506172778,0)" xlink:href="#bj"/><use transform="matrix(0.06172839506172778,0,0,0.06172839506172778,13.518518518518384,0)" xlink:href="#bi"/><use transform="matrix(0.06172839506172778,0,0,0.06172839506172778,25.86419753086394,0)" xlink:href="#bh"/><use transform="matrix(0.06172839506172778,0,0,0.06172839506172778,45.61728395061683,0)" xlink:href="#ba"/></g><g id="ak"><use transform="matrix(0.06172839506172778,0,0,0.06172839506172778,0,0)" xlink:href="#bi"/><use transform="matrix(0.06172839506172778,0,0,0.06172839506172778,12.345679012345556,0)" xlink:href="#bk"/><use transform="matrix(0.06172839506172778,0,0,0.06172839506172778,25.86419753086394,0)" xlink:href="#be"/><use transform="matrix(0.06172839506172778,0,0,0.06172839506172778,32.03703703703672,0)" xlink:href="#bj"/></g><g id="al"><use transform="matrix(0.06172839506172778,0,0,0.06172839506172778,0,0)" xlink:href="#bp"/><use transform="matrix(0.06172839506172778,0,0,0.06172839506172778,12.345679012345556,0)" xlink:href="#bc"/><use transform="matrix(0.06172839506172778,0,0,0.06172839506172778,25.86419753086394,0)" xlink:href="#bf"/><use transform="matrix(0.06172839506172778,0,0,0.06172839506172778,39.382716049382324,0)" xlink:href="#bj"/><use transform="matrix(0.06172839506172778,0,0,0.06172839506172778,46.72839506172793,0)" xlink:href="#be"/><use transform="matrix(0.06172839506172778,0,0,0.06172839506172778,52.90123456790071,0)" xlink:href="#bf"/><use transform="matrix(0.06172839506172778,0,0,0.06172839506172778,66.41975308641909,0)" xlink:href="#bn"/><use transform="matrix(0.06172839506172778,0,0,0.06172839506172778,79.93827160493748,0)" xlink:href="#bi"/></g><g id="am"><use transform="matrix(0.06172839506172778,0,0,0.06172839506172778,0,0)" xlink:href="#ba"/><use transform="matrix(0.06172839506172778,0,0,0.06172839506172778,12.345679012345556,0)" xlink:href="#bb"/><use transform="matrix(0.06172839506172778,0,0,0.06172839506172778,25.86419753086394,0)" xlink:href="#bc"/><use transform="matrix(0.06172839506172778,0,0,0.06172839506172778,39.382716049382324,0)" xlink:href="#bd"/><use transform="matrix(0.06172839506172778,0,0,0.06172839506172778,52.90123456790071,0)" xlink:href="#bd"/><use transform="matrix(0.06172839506172778,0,0,0.06172839506172778,66.41975308641909,0)" xlink:href="#be"/><use transform="matrix(0.06172839506172778,0,0,0.06172839506172778,72.59259259259187,0)" xlink:href="#bf"/><use transform="matrix(0.06172839506172778,0,0,0.06172839506172778,86.11111111111026,0)" xlink:href="#bg"/></g><g id="an"><use transform="matrix(0.06172839506172778,0,0,0.06172839506172778,0,0)" xlink:href="#bc"/><use transform="matrix(0.06172839506172778,0,0,0.06172839506172778,13.518518518518384,0)" xlink:href="#bl"/><use transform="matrix(0.06172839506172778,0,0,0.06172839506172778,22.160493827160273,0)" xlink:href="#bk"/><use transform="matrix(0.06172839506172778,0,0,0.06172839506172778,35.67901234567866,0)" xlink:href="#bi"/><use transform="matrix(0.06172839506172778,0,0,0.06172839506172778,48.024691358024214,0)" xlink:href="#bl"/></g><g id="ao"><use transform="matrix(0.06172839506172778,0,0,0.06172839506172778,0,0)" xlink:href="#bp"/><use transform="matrix(0.06172839506172778,0,0,0.06172839506172778,12.345679012345556,0)" xlink:href="#bc"/><use transform="matrix(0.06172839506172778,0,0,0.06172839506172778,25.86419753086394,0)" xlink:href="#bl"/><use transform="matrix(0.06172839506172778,0,0,0.06172839506172778,34.50617283950583,0)" xlink:href="#bl"/><use transform="matrix(0.06172839506172778,0,0,0.06172839506172778,43.14814814814772,0)" xlink:href="#bi"/><use transform="matrix(0.06172839506172778,0,0,0.06172839506172778,55.493827160493275,0)" xlink:href="#bp"/><use transform="matrix(0.06172839506172778,0,0,0.06172839506172778,67.83950617283884,0)" xlink:href="#bj"/></g><path fill="#333" d="M175 0L67-191c6 58 2 128 3 191H24v-248h59L193-55c-6-58-2-129-3-193h46V0h-61" id="bJ"/><g id="ap"><use transform="matrix(0.06172839506172778,0,0,0.06172839506172778,0,0)" xlink:href="#bJ"/><use transform="matrix(0.06172839506172778,0,0,0.06172839506172778,15.987654320987495,0)" xlink:href="#bc"/></g><g id="aq"><use transform="matrix(0.06172839506172778,0,0,0.06172839506172778,0,0)" xlink:href="#bk"/><use transform="matrix(0.06172839506172778,0,0,0.06172839506172778,13.518518518518384,0)" xlink:href="#bi"/><use transform="matrix(0.06172839506172778,0,0,0.06172839506172778,25.86419753086394,0)" xlink:href="#bj"/><use transform="matrix(0.06172839506172778,0,0,0.06172839506172778,33.209876543209546,0)" xlink:href="#bs"/><use transform="matrix(0.06172839506172778,0,0,0.06172839506172778,45.5555555555551,0)" xlink:href="#be"/><use transform="matrix(0.06172839506172778,0,0,0.06172839506172778,51.72839506172788,0)" xlink:href="#bq"/><use transform="matrix(0.06172839506172778,0,0,0.06172839506172778,57.90123456790066,0)" xlink:href="#ba"/></g><g id="ar"><use transform="matrix(0.06172839506172778,0,0,0.06172839506172778,0,0)" xlink:href="#bs"/><use transform="matrix(0.06172839506172778,0,0,0.06172839506172778,12.345679012345556,0)" xlink:href="#bp"/><use transform="matrix(0.06172839506172778,0,0,0.06172839506172778,24.691358024691112,0)" xlink:href="#bp"/><use transform="matrix(0.06172839506172778,0,0,0.06172839506172778,37.03703703703667,0)" xlink:href="#bc"/><use transform="matrix(0.06172839506172778,0,0,0.06172839506172778,50.55555555555505,0)" xlink:href="#bn"/><use transform="matrix(0.06172839506172778,0,0,0.06172839506172778,64.07407407407344,0)" xlink:href="#bf"/><use transform="matrix(0.06172839506172778,0,0,0.06172839506172778,77.59259259259181,0)" xlink:href="#bj"/></g><path fill="#de5f85" d="M110-194c64 0 96 36 96 99 0 64-35 99-97 99-61 0-95-36-95-99 0-62 34-99 96-99zm-1 164c35 0 45-28 45-65 0-40-10-65-43-65-34 0-45 26-45 65 0 36 10 65 43 65" id="bK"/><path fill="#de5f85" d="M115-3C79 11 28 4 28-45v-112H4v-33h27l15-45h31v45h36v33H77v99c-1 23 16 31 38 25v30" id="bL"/><path fill="#de5f85" d="M121-226c-27-7-43 5-38 36h38v33H83V0H34v-157H6v-33h28c-9-59 32-81 87-68v32" id="bM"/><path fill="#de5f85" d="M123 10C108 53 80 86 19 72V37c35 8 53-11 59-39L3-190h52l48 148c12-52 28-100 44-148h51" id="bN"/><g id="as"><use transform="matrix(0.06172839506172778,0,0,0.06172839506172778,0,0)" xlink:href="#bH"/><use transform="matrix(0.06172839506172778,0,0,0.06172839506172778,13.518518518518384,0)" xlink:href="#bK"/><use transform="matrix(0.06172839506172778,0,0,0.06172839506172778,27.037037037036768,0)" xlink:href="#bL"/><use transform="matrix(0.06172839506172778,0,0,0.06172839506172778,34.382716049382374,0)" xlink:href="#bG"/><use transform="matrix(0.06172839506172778,0,0,0.06172839506172778,40.55555555555515,0)" xlink:href="#bM"/><use transform="matrix(0.06172839506172778,0,0,0.06172839506172778,47.90123456790076,0)" xlink:href="#bN"/></g><path fill="#de5f85" d="M231 0h-52l-39-155L100 0H48L-1-190h46L77-45c9-52 24-97 36-145h53l37 145 32-145h46" id="bO"/><path fill="#de5f85" d="M114-157C55-157 80-60 75 0H25v-261h50l-1 109c12-26 28-41 61-42 86-1 58 113 63 194h-50c-7-57 23-157-34-157" id="bP"/><path fill="#de5f85" d="M185-48c-13 30-37 53-82 52C43 2 14-33 14-96s30-98 90-98c62 0 83 45 84 108H66c0 31 8 55 39 56 18 0 30-7 34-22zm-45-69c5-46-57-63-70-21-2 6-4 13-4 21h74" id="bQ"/><g id="at"><use transform="matrix(0.06172839506172778,0,0,0.06172839506172778,0,0)" xlink:href="#bO"/><use transform="matrix(0.06172839506172778,0,0,0.06172839506172778,17.28395061728378,0)" xlink:href="#bP"/><use transform="matrix(0.06172839506172778,0,0,0.06172839506172778,30.802469135802163,0)" xlink:href="#bQ"/><use transform="matrix(0.06172839506172778,0,0,0.06172839506172778,43.14814814814772,0)" xlink:href="#bH"/></g><path fill="#de5f85" d="M128 0H69L1-190h53L99-40l48-150h52" id="bR"/><path fill="#de5f85" d="M25 0v-261h50V0H25" id="bS"/><path fill="#de5f85" d="M135-194c52 0 70 43 70 98 0 56-19 99-73 100-30 1-46-15-58-35L72 0H24l1-261h50v104c11-23 29-37 60-37zM114-30c31 0 40-27 40-66 0-37-7-63-39-63s-41 28-41 65c0 36 8 64 40 64" id="bT"/><g id="au"><use transform="matrix(0.06172839506172778,0,0,0.06172839506172778,0,0)" xlink:href="#bD"/><use transform="matrix(0.06172839506172778,0,0,0.06172839506172778,12.345679012345556,0)" xlink:href="#bR"/><use transform="matrix(0.06172839506172778,0,0,0.06172839506172778,24.691358024691112,0)" xlink:href="#bD"/><use transform="matrix(0.06172839506172778,0,0,0.06172839506172778,37.03703703703667,0)" xlink:href="#bG"/><use transform="matrix(0.06172839506172778,0,0,0.06172839506172778,43.20987654320945,0)" xlink:href="#bS"/><use transform="matrix(0.06172839506172778,0,0,0.06172839506172778,49.382716049382225,0)" xlink:href="#bD"/><use transform="matrix(0.06172839506172778,0,0,0.06172839506172778,61.72839506172778,0)" xlink:href="#bT"/><use transform="matrix(0.06172839506172778,0,0,0.06172839506172778,75.24691358024617,0)" xlink:href="#bS"/><use transform="matrix(0.06172839506172778,0,0,0.06172839506172778,81.41975308641895,0)" xlink:href="#bQ"/></g><g id="av"><use transform="matrix(0.06172839506172778,0,0,0.06172839506172778,0,0)" xlink:href="#bd"/><use transform="matrix(0.06172839506172778,0,0,0.06172839506172778,13.518518518518384,0)" xlink:href="#bq"/><use transform="matrix(0.06172839506172778,0,0,0.06172839506172778,19.691358024691162,0)" xlink:href="#bs"/><use transform="matrix(0.06172839506172778,0,0,0.06172839506172778,32.03703703703672,0)" xlink:href="#bp"/><use transform="matrix(0.06172839506172778,0,0,0.06172839506172778,44.382716049382275,0)" xlink:href="#bi"/></g><path fill="#de5f85" d="M67-125c0 53 21 87 73 88 37 1 54-22 65-47l45 17C233-25 199 4 140 4 58 4 20-42 15-125 8-235 124-281 211-232c18 10 29 29 36 50l-46 12c-8-25-30-41-62-41-52 0-71 34-72 86" id="bU"/><path fill="#de5f85" d="M220-157c-53 9-28 100-34 157h-49v-107c1-27-5-49-29-50C55-147 81-57 75 0H25l-1-190h47c2 12-1 28 3 38 10-53 101-56 108 0 13-22 24-43 59-42 82 1 51 116 57 194h-49v-107c-1-25-5-48-29-50" id="bV"/><g id="aw"><use transform="matrix(0.06172839506172778,0,0,0.06172839506172778,0,0)" xlink:href="#bU"/><use transform="matrix(0.06172839506172778,0,0,0.06172839506172778,15.987654320987495,0)" xlink:href="#bP"/><use transform="matrix(0.06172839506172778,0,0,0.06172839506172778,29.50617283950588,0)" xlink:href="#bD"/><use transform="matrix(0.06172839506172778,0,0,0.06172839506172778,41.851851851851436,0)" xlink:href="#bV"/><use transform="matrix(0.06172839506172778,0,0,0.06172839506172778,61.604938271604325,0)" xlink:href="#bQ"/><use transform="matrix(0.06172839506172778,0,0,0.06172839506172778,73.95061728394988,0)" xlink:href="#bS"/><use transform="matrix(0.06172839506172778,0,0,0.06172839506172778,80.12345679012266,0)" xlink:href="#bQ"/><use transform="matrix(0.06172839506172778,0,0,0.06172839506172778,92.46913580246822,0)" xlink:href="#bK"/><use transform="matrix(0.06172839506172778,0,0,0.06172839506172778,105.98765432098659,0)" xlink:href="#bH"/></g><g id="ax"><use transform="matrix(0.06172839506172778,0,0,0.06172839506172778,0,0)" xlink:href="#bD"/><use transform="matrix(0.06172839506172778,0,0,0.06172839506172778,12.345679012345556,0)" xlink:href="#bE"/><use transform="matrix(0.06172839506172778,0,0,0.06172839506172778,24.691358024691112,0)" xlink:href="#bL"/><use transform="matrix(0.06172839506172778,0,0,0.06172839506172778,32.03703703703672,0)" xlink:href="#bG"/><use transform="matrix(0.06172839506172778,0,0,0.06172839506172778,38.209876543209496,0)" xlink:href="#bK"/><use transform="matrix(0.06172839506172778,0,0,0.06172839506172778,51.72839506172788,0)" xlink:href="#bH"/></g><g id="ay"><use transform="matrix(0.06172839506172778,0,0,0.06172839506172778,0,0)" xlink:href="#bn"/><use transform="matrix(0.06172839506172778,0,0,0.06172839506172778,13.518518518518384,0)" xlink:href="#ba"/><use transform="matrix(0.06172839506172778,0,0,0.06172839506172778,25.86419753086394,0)" xlink:href="#bi"/><use transform="matrix(0.06172839506172778,0,0,0.06172839506172778,38.209876543209496,0)" xlink:href="#bl"/></g><g id="az"><use transform="matrix(0.06172839506172778,0,0,0.06172839506172778,0,0)" xlink:href="#bs"/><use transform="matrix(0.06172839506172778,0,0,0.06172839506172778,12.345679012345556,0)" xlink:href="#bp"/><use transform="matrix(0.06172839506172778,0,0,0.06172839506172778,24.691358024691112,0)" xlink:href="#bj"/><use transform="matrix(0.06172839506172778,0,0,0.06172839506172778,32.03703703703672,0)" xlink:href="#be"/><use transform="matrix(0.06172839506172778,0,0,0.06172839506172778,38.209876543209496,0)" xlink:href="#bc"/><use transform="matrix(0.06172839506172778,0,0,0.06172839506172778,51.72839506172788,0)" xlink:href="#bf"/></g><path fill="#333" d="M24 0v-248h52v208h133V0H24" id="bW"/><g id="aA"><use transform="matrix(0.06172839506172778,0,0,0.06172839506172778,0,0)" xlink:href="#bW"/><use transform="matrix(0.06172839506172778,0,0,0.06172839506172778,13.518518518518384,0)" xlink:href="#bi"/><use transform="matrix(0.06172839506172778,0,0,0.06172839506172778,25.86419753086394,0)" xlink:href="#bg"/><use transform="matrix(0.06172839506172778,0,0,0.06172839506172778,39.382716049382324,0)" xlink:href="#bi"/><use transform="matrix(0.06172839506172778,0,0,0.06172839506172778,51.72839506172788,0)" xlink:href="#bf"/><use transform="matrix(0.06172839506172778,0,0,0.06172839506172778,65.24691358024626,0)" xlink:href="#bk"/></g></defs></g></svg>